<svg xmlns="http://www.w3.org/2000/svg" viewBox="0 0 1440 1024"><g fill="none" fill-rule="evenodd"><g fill-rule="nonzero" transform="translate(221 63)"><g transform="matrix(-1 0 0 1 421.95 0)"><path fill="#8FD8FC" d="M69.7358225,41.283587 C69.7330886,41.1441447 69.7317217,41.0059534 69.7317217,40.8690129 C69.7317217,18.7250299 87.236387,0.773784838 108.829486,0.773784838 C130.422585,0.773784838 147.92725,18.7250299 147.92725,40.8690129 C147.92725,40.9395518 147.926887,41.0104308 147.92616,41.0816499 L147.926161,41.0816499 C147.76446,56.9318563 153.064936,72.3544379 162.936424,84.7564102 C175.834265,100.960519 182.283185,115.831162 182.283185,129.368339 C182.283185,135.57777 180.8317,142.618333 177.928729,150.490027 L177.928729,150.490027 C170.56181,170.466162 172.829594,192.724541 184.07384,210.804485 C194.966183,228.318596 200.412355,243.93192 200.412355,257.644458 C200.412355,266.459493 198.059945,276.767188 193.355125,288.567546 L193.355125,288.567546 C185.390707,308.543439 187.195366,331.090556 198.235753,349.545315 C211.118121,371.07907 217.559304,389.918851 217.559304,406.064658 C217.559304,467.646472 168.879306,517.568396 108.829486,517.568396 C48.7796653,517.568396 0.099667416,467.646472 0.099667416,406.064658 C0.099667416,389.918851 6.54085131,371.079071 19.4232191,349.545315 L19.4232191,349.545315 C30.4636063,331.090556 32.2682653,308.543437 24.3038466,288.567544 C19.5990268,276.767187 17.246617,266.459492 17.246617,257.644458 C17.246617,243.791381 22.7982964,228.034948 33.9016552,210.37516 L33.9016547,210.37516 C45.2298004,192.35785 47.6095706,170.121114 40.3507222,150.114629 C37.5458107,142.383868 36.1433549,135.468438 36.1433549,129.368339 C36.1433549,116.000283 42.4433964,101.283115 55.0434794,85.2168325 L55.0434793,85.2168323 C64.857428,72.7031316 70.0475495,57.1835594 69.7358225,41.283587 Z"/><path fill="#0070AD" d="M109.143561,337.841112 L109.143561,281.616985 L69.6644935,230.052049 C69.2793664,229.549022 69.3749435,228.82903 69.8779709,228.443903 C70.3809982,228.058776 71.1009896,228.154353 71.4861166,228.657381 L111.201479,280.530949 C111.354729,280.731114 111.437773,280.976189 111.437773,281.228283 L111.437773,334.844564 L148.572465,286.341695 C148.957592,285.838668 149.677584,285.743091 150.180611,286.128218 C150.683638,286.513345 150.779215,287.233336 150.394088,287.736363 L111.437773,338.618515 L111.437773,343.912116 C111.437773,344.315381 111.229682,344.670044 110.915021,344.874584 L110.915021,394.714199 L111.201479,395.088351 C111.354729,395.288516 111.437773,395.53359 111.437773,395.785685 L111.437773,437.651998 L148.572465,389.14913 C148.957592,388.646102 149.677584,388.550525 150.180611,388.935652 C150.683638,389.320779 150.779215,390.040771 150.394088,390.543798 L111.437773,441.42595 L111.437773,458.469518 C111.437773,458.872783 111.229682,459.227446 110.915021,459.431986 L110.915021,489.488871 C111.027762,489.669621 111.088842,489.879704 111.088842,490.095975 L111.088842,582.381903 C111.088842,583.015432 110.575265,583.529009 109.941735,583.529009 C109.308206,583.529009 108.794629,583.015432 108.794629,582.381903 L108.794629,505.011254 C108.684476,504.835115 108.620809,504.626925 108.620809,504.403865 L108.620809,490.384426 L67.354417,448.065245 C66.9121217,447.611665 66.921269,446.885415 67.3748483,446.44312 C67.8284275,446.000825 68.5546774,446.009972 68.9969728,446.463551 L108.620809,487.098272 L108.620809,441.720032 C108.620809,441.467938 108.703853,441.222863 108.857103,441.022698 L109.143561,440.648546 L109.143561,402.5589 C108.8289,402.354358 108.620809,401.999696 108.620809,401.596431 L108.620809,395.491603 L69.6644935,344.609451 C69.2793664,344.106423 69.3749435,343.386432 69.8779709,343.001305 C70.3809982,342.616178 71.1009896,342.711755 71.4861166,343.214782 L108.620809,391.717651 L108.620809,338.912598 C108.620809,338.660503 108.703853,338.415429 108.857103,338.215263 L109.143561,337.841112 Z"/></g><g transform="matrix(-1 0 0 1 204.23 100.042)"><path fill="#BFEAFF" d="M101.917598,467.371302 C158.117365,467.371302 203.676277,420.650089 203.676277,363.016551 C203.676277,305.383013 158.117365,0.174732827 101.917598,0.174732827 C45.7178312,0.174732827 0.158918648,305.383013 0.158918648,363.016551 C0.158918648,420.650089 45.7178312,467.371302 101.917598,467.371302 Z"/><path fill="#0070AD" d="M102.231673,330.509447 L102.231673,286.035288 L62.7526055,234.470352 C62.3674785,233.967324 62.4630556,233.247333 62.9660829,232.862206 C63.4691103,232.477079 64.1891016,232.572656 64.5742287,233.075683 L104.289591,284.949252 C104.442841,285.149417 104.525885,285.394491 104.525885,285.646586 L104.525885,327.512899 L141.660577,279.010031 C142.045704,278.507003 142.765696,278.411426 143.268723,278.796553 C143.77175,279.18168 143.867327,279.901672 143.4822,280.404699 L104.525885,331.286851 L104.525885,348.330419 C104.525885,348.733684 104.317794,349.088347 104.003133,349.292887 L104.003133,380.916848 L141.660577,331.731196 C142.045704,331.228168 142.765696,331.132591 143.268723,331.517718 C143.77175,331.902845 143.867327,332.622836 143.4822,333.125864 L104.003133,384.6908 L104.003133,432.070936 C104.115874,432.251686 104.176954,432.46177 104.176954,432.678041 L104.176954,524.963969 C104.176954,525.597498 103.663377,526.111075 103.029847,526.111075 C102.396318,526.111075 101.882741,525.597498 101.882741,524.963969 L101.882741,447.59332 C101.772588,447.417181 101.708921,447.208991 101.708921,446.985931 L101.708921,432.966492 L60.4425291,390.64731 C60.0002337,390.193731 60.0093811,389.467481 60.4629603,389.025186 C60.9165396,388.582891 61.6427894,388.592038 62.0850848,389.045617 L101.708921,429.680338 L101.708921,384.302098 L101.708921,331.580933 C101.708921,331.328839 101.791965,331.083764 101.945215,330.883599 L102.231673,330.509447 Z"/></g><g transform="matrix(-1 0 0 1 1034.23 130.042)"><path fill="#8FD8FC" d="M101.917598,467.371302 C158.117365,467.371302 203.676277,420.650089 203.676277,363.016551 C203.676277,305.383013 158.117365,0.174732827 101.917598,0.174732827 C45.7178312,0.174732827 0.158918648,305.383013 0.158918648,363.016551 C0.158918648,420.650089 45.7178312,467.371302 101.917598,467.371302 Z"/><path fill="#0070AD" d="M102.231673,330.509447 L102.231673,286.035288 L62.7526055,234.470352 C62.3674785,233.967324 62.4630556,233.247333 62.9660829,232.862206 C63.4691103,232.477079 64.1891016,232.572656 64.5742287,233.075683 L104.289591,284.949252 C104.442841,285.149417 104.525885,285.394491 104.525885,285.646586 L104.525885,327.512899 L141.660577,279.010031 C142.045704,278.507003 142.765696,278.411426 143.268723,278.796553 C143.77175,279.18168 143.867327,279.901672 143.4822,280.404699 L104.525885,331.286851 L104.525885,348.330419 C104.525885,348.733684 104.317794,349.088347 104.003133,349.292887 L104.003133,380.916848 L141.660577,331.731196 C142.045704,331.228168 142.765696,331.132591 143.268723,331.517718 C143.77175,331.902845 143.867327,332.622836 143.4822,333.125864 L104.003133,384.6908 L104.003133,432.070936 C104.115874,432.251686 104.176954,432.46177 104.176954,432.678041 L104.176954,524.963969 C104.176954,525.597498 103.663377,526.111075 103.029847,526.111075 C102.396318,526.111075 101.882741,525.597498 101.882741,524.963969 L101.882741,447.59332 C101.772588,447.417181 101.708921,447.208991 101.708921,446.985931 L101.708921,432.966492 L60.4425291,390.64731 C60.0002337,390.193731 60.0093811,389.467481 60.4629603,389.025186 C60.9165396,388.582891 61.6427894,388.592038 62.0850848,389.045617 L101.708921,429.680338 L101.708921,384.302098 L101.708921,331.580933 C101.708921,331.328839 101.791965,331.083764 101.945215,330.883599 L102.231673,330.509447 Z"/></g></g><g transform="translate(899 594)"><path fill="#BFEAFF" fill-rule="nonzero" d="M150.913771,259.339778 C115.364624,264.335885 99.2979407,122.003553 93.6869285,82.0791265 C88.0759163,42.1547 112.34557,5.7394127 147.894717,0.743305917 C183.443864,-4.25280086 216.810765,24.0621968 222.421777,63.9866234 C228.03279,103.91105 186.462918,254.343671 150.913771,259.339778 Z"/><path stroke="#22537F" stroke-linecap="round" stroke-linejoin="round" stroke-width="2" d="M157.003011,280.483832 L157.003011,71.9838316"/><path fill="#8FD8FC" fill-rule="nonzero" d="M163.464503,290.214032 C136.774726,274.177196 206.715142,164.342211 225.592469,132.925063 C244.469796,101.507915 281.409232,89.0397088 308.09901,105.076545 C334.788787,121.113381 341.12203,159.582436 322.244703,190.999584 C303.367376,222.416732 190.15428,306.250869 163.464503,290.214032 Z"/><path fill="#BFEAFF" fill-rule="nonzero" d="M165.190748,294.033027 C155.803839,273.902735 274.796359,221.077077 308.014618,205.587148 C341.232878,190.097219 375.771191,193.858976 385.1581,213.989268 C394.545009,234.119559 375.225882,262.995453 342.007623,278.485382 C308.789364,293.975311 174.577657,314.163318 165.190748,294.033027 Z"/><path stroke="#22537F" stroke-linecap="round" stroke-linejoin="round" stroke-width="2" d="M170.003011,291.983832 L298.503011,252.483832"/><path stroke="#22537F" stroke-linecap="round" stroke-linejoin="round" stroke-width="2" d="M168.003011,284.483832 L271.003011,166.483832"/><path fill="#8FD8FC" fill-rule="nonzero" d="M167.247606,292.297269 C152.385332,308.803496 57.2649757,219.910933 30.0270131,195.385761 C2.78905055,170.86059 -7.24342774,137.598069 7.61884568,121.091842 C22.4811191,104.585615 56.6101036,111.086255 83.8480662,135.611426 C111.086029,160.136598 182.109879,275.791042 167.247606,292.297269 Z"/><path stroke="#22537F" stroke-linecap="round" stroke-linejoin="round" stroke-width="2" d="M153.193734,272.131624 L88.693734,190.631624"/><path fill="#CBEFFC" fill-rule="nonzero" d="M171.167783,292.027532 C167.335792,306.328715 72.3285587,279.207016 45.459738,272.007538 C18.5909173,264.808059 -0.08412341,247.378328 3.74786713,233.077145 C7.57985767,218.775962 32.4677826,213.018892 59.3366033,220.218371 C86.205424,227.41785 174.999774,277.726348 171.167783,292.027532 Z"/><path stroke="#22537F" stroke-linecap="round" stroke-linejoin="round" stroke-width="2" d="M169.503011,290.983832 L60.0030107,253.483832"/></g><g transform="translate(379 148)"><g transform="translate(0 87)"><path fill="#FFC55F" d="M98.5213583,456.412093 C98.5137001,456.749387 98.4759598,457.085325 98.4085864,457.41591 C97.7830953,460.485044 94.7880095,462.466009 91.7188749,461.840518 C87.6896381,461.019357 84.544094,457.864811 83.7344515,453.833244 L35.9133567,215.710948 C35.6229845,214.265057 35.4279921,212.801639 35.3296411,211.330163 C34.0904318,192.789753 48.1158255,176.755204 66.6562348,175.515995 C67.7004674,175.4462 68.7472992,175.423146 69.7935921,175.446902 C89.172685,175.886902 104.525854,191.95345 104.085854,211.332543 L98.5213583,456.412093 Z"/><path fill="#F95B03" fill-rule="nonzero" d="M55.8097659,231.344811 C31.5143924,240.167733 -9.53654965,200.920332 2.77391006,156.642064 C15.0843698,112.363796 25.9881495,85.8137151 14.3810298,72.0644227 C2.77391006,58.3151303 44.7412037,65.0470989 44.7412037,91.432397 C44.7412037,117.817695 47.9363768,25.5314476 80.1051393,0.528715072 C85.7202921,31.1378056 96.0852809,54.9830415 111.200106,72.0644227 C133.872343,97.6864945 129.11789,117.914153 119.697153,142.338137 C130.602273,144.487009 135.418477,141.790202 134.145767,134.247718 C148.666338,147.986788 134.535599,205.813154 100.763222,221.716676 C66.9908439,237.620199 80.1051393,222.521889 55.8097659,231.344811 Z"/><path fill="#EC961F" d="M104.148135,219.947559 C103.042893,220.583709 101.914469,221.17455 100.763222,221.716676 C66.9908439,237.620199 80.1051393,222.521889 55.8097659,231.344811 C50.8184438,233.157421 45.1199202,232.941129 39.3221889,231.069137 L36.6986555,214.819753 C36.5691722,214.017772 36.4689297,213.211343 36.3981273,212.402068 C34.7870584,193.987466 48.4090135,177.753452 66.8236157,176.142383 C67.4581449,176.086869 68.0941076,176.049179 68.7307521,176.029358 C87.517859,175.444442 103.221986,190.200234 103.806901,208.987341 L104.148135,219.947559 Z"/><path fill="#1C2229" fill-rule="nonzero" d="M59.348824,207.835685 L70.492805,186.060504 C72.3151216,182.499723 77.6562933,185.233198 75.8339766,188.793979 L64.6899957,210.56916 C62.867679,214.129942 57.5265074,211.396467 59.348824,207.835685 Z"/><path fill="#1C2229" fill-rule="nonzero" d="M70.3897855,213.35017 L81.5337664,191.574988 C83.3560831,188.014207 88.6972547,190.747682 86.8749381,194.308463 L75.7309571,216.083645 C73.9086405,219.644426 68.5674688,216.910951 70.3897855,213.35017 Z"/></g><g transform="translate(32 296)"><path fill="#FFAA83" fill-rule="nonzero" d="M2.52654017,158.006442 C6.22569057,141.987731 60.5932139,154.402572 64.4258496,158.731338 C70.8222136,165.955703 54.7091702,185.556784 45.4247462,190.287434 C33.8141275,196.20334 11.2377118,182.437571 1.81145903,174.608946 C1.04543629,173.972754 -4.18426617,170.806058 -4.36994033,169.583798 C-4.53687308,168.48491 0.843354401,168.119421 0.984967496,166.768832 C1.34593796,163.326192 1.91360579,160.660678 2.52654017,158.006442 Z" transform="scale(-1 1) rotate(-72 0 213.222)"/><path stroke="#ED5738" stroke-linecap="round" stroke-linejoin="round" stroke-width="6" d="M227.322832,214.6974 L215.731574,196.186789 L227.322832,214.6974 Z"/><path fill="#FFAA83" fill-rule="nonzero" d="M84.5640293,155.953151 C119.647509,165.217094 171.977339,179.884677 215.718624,196.229959 C196.425442,135.338647 177.917693,52.8923912 191.173164,25.1284063 C210.330387,-14.9969759 237.869594,0.426108235 252.385914,23.6077315 C266.566357,46.2529801 316.455461,215.387559 300.893036,260.617912 C306.906529,287.839325 290.241042,300.586329 255.197273,293.415623 C230.408052,288.343217 170.94728,258.011966 76.8149583,202.421871 C72.4857685,203.296929 66.6231903,200.567603 64.161415,197.016717 C63.5068355,196.072546 62.9201465,195.016118 62.3899678,193.867057 C53.354194,188.486539 44.0213125,182.889574 34.3913232,177.076159 C32.9705612,169.44723 32.407033,163.201391 32.7007388,158.338642 C32.6553493,158.320084 32.6098739,158.300775 32.5643121,158.280706 C17.6673099,151.719004 41.5750762,123.906453 50.8200165,127.307671 C56.9633051,129.567789 64.914991,128.329688 74.8152109,137.243886 C79.13845,141.136548 82.4720726,148.021354 84.5640293,155.953151 Z"/><path fill="#ED5738" fill-rule="nonzero" d="M54.6865024,170.690698 C56.6090684,168.357305 59.14289,164.337993 62.2343549,158.683584 C63.0291776,157.229822 64.8520154,156.695646 66.305777,157.490469 C67.7595386,158.285292 68.2937141,160.10813 67.4988913,161.561891 C64.2411473,167.520431 61.5317744,171.818214 59.3171604,174.506063 C58.0710741,176.018421 56.9334225,177.089144 55.7977674,177.735577 C54.0575029,178.726163 52.1223842,178.786649 50.55874,177.511086 C45.9399695,173.743265 43.2360306,166.912607 43.4934167,156.759348 C43.5653474,153.921858 43.688146,151.457396 43.869171,149.347612 C38.5588164,152.231356 32.9519825,153.274166 27.1166381,152.422442 C23.0989619,151.836025 20.1668007,150.973076 18.2162956,149.702631 C15.5473841,147.964258 14.5376179,145.236034 15.7551161,142.388659 C16.4065145,140.865226 18.1695632,140.158303 19.6929956,140.809702 C21.1578579,141.436057 21.8677873,143.090228 21.3410913,144.570886 C21.3845426,144.603379 21.4344202,144.638223 21.4909656,144.675054 C22.5525907,145.366534 24.7512927,146.013622 27.9832124,146.485351 C34.338266,147.412931 40.3253019,145.467625 46.1290953,140.503726 C48.5181126,138.460435 52.0418411,141.000739 50.858286,143.913065 C50.1674985,145.612857 49.6651148,150.062312 49.4914898,156.911399 C49.2998934,164.469412 50.8939135,169.304073 53.4574503,172.027547 C53.7984941,171.709822 54.2148674,171.263115 54.6865024,170.690698 Z M21.1622672,144.416039 C21.1609961,144.41365 21.1604788,144.412656 21.1608774,144.413102 C21.1608854,144.413111 21.1613487,144.41409 21.1622672,144.416039 Z" transform="scale(-1 1) rotate(-72 0 216.316)"/></g><g fill-rule="nonzero" transform="translate(193 242)"><path fill="#FFAA83" d="M38.2904206,45.5580163 C74.8534586,3.47382348 338.892583,13.7713893 360.026334,45.5580163 C381.160084,77.3446434 353.344719,308.041077 307.490922,342.519989 C261.637126,376.998901 148.04022,392.054478 98.8941745,342.519989 C49.7481286,292.9855 1.72738254,87.6422092 38.2904206,45.5580163 Z" transform="rotate(6 196.32 195.999)"/><path fill="#5296FB" d="M52.115595,216.650942 C28.6521818,217.677015 8.06014249,208.883324 4.8494031,186.777786 C-1.38457602,143.85762 9.28000223,69.0062282 40.3478491,37.1299862 C51.5087819,25.6786425 61.3439992,21.3780554 69.6460147,21.8054937 C86.6370463,15.9412641 113.013801,13.6511144 143.314623,13.9958193 C168.023999,14.2769153 115.463533,176.872744 202.035316,185.971805 C311.637741,197.491484 262.648466,25.2132142 281.261792,28.8636404 C329.79492,38.381907 368.424349,51.2034478 374.854851,63.4942162 C389.388146,91.2720437 357.059196,249.036501 317.780375,320.874428 C309.234305,336.504531 343.747387,404.719061 334.954406,409.990029 C292.050242,435.709009 264.451469,431.39721 186.66978,433.55311 C108.888091,435.709009 63.9598996,397.482934 65.2008556,382.437885 C67.1997577,358.203681 71.2299866,322.269905 66.4264367,291.585345 C63.9971114,276.067077 57.9912536,248.454661 52.115595,216.650942 Z"/><path fill="#FFF" d="M134.204925,96.0195945 C133.77446,93.7402908 135.27324,91.5435891 137.552543,91.1131239 C139.831847,90.6826587 142.028549,92.1814384 142.459014,94.4607421 C153.521984,153.038921 175.101863,181.522434 206.883781,181.522434 C229.352747,181.522434 246.56985,170.220021 257.874052,149.965644 C268.022132,131.782757 272.674537,107.259642 271.106464,83.1505084 C270.955914,80.8358032 272.710308,78.8373191 275.025013,78.6867691 C277.339719,78.5362192 279.338203,80.2906137 279.488753,82.6053188 C281.156185,108.242085 276.200078,134.36603 265.209,154.059364 C252.491928,176.845258 232.571308,189.922434 206.883781,189.922434 C170.047708,189.922434 145.92638,158.084436 134.204925,96.0195945 Z" transform="rotate(6 206.968 134.3)"/><path fill="#FFF" d="M50.0466553,195.753444 C36.3731763,199.870678 19.3933433,200.414124 1.98894886,196.700876 C0.368563171,196.355165 -0.664764679,194.761328 -0.319053492,193.140942 C0.0266576944,191.520557 1.62049413,190.487229 3.24087981,190.83294 C20.2694214,194.465999 35.3116731,194.151119 48.4112757,189.853319 C51.4503013,192.821447 54.3868858,193.247611 50.0466553,195.753444 Z" transform="rotate(30 25.927 194.522)"/><path fill="#1D5EF8" d="M53.1931134,212.153959 C53.6816418,213.737154 52.7942392,215.416617 51.2110443,215.905146 C49.6278495,216.393674 47.9483859,215.506272 47.4598575,213.923077 C40.9040606,192.677424 38.1715975,177.376163 39.3305812,167.781975 C39.5292856,166.137079 41.023819,164.964709 42.6687149,165.163413 C44.3136108,165.362118 45.4859806,166.856651 45.2872762,168.501547 C44.2569302,177.03086 46.869505,191.66077 53.1931134,212.153959 Z"/></g><g transform="translate(256)"><g transform="translate(22 137)"><path fill="#FFAA83" fill-rule="nonzero" d="M57.6030686,170.445888 C46.3724104,169.544527 23.692005,157.291426 23.692005,143.649145 C23.692005,129.474367 32.3549397,117.983439 43.0412113,117.983439 C43.4570481,117.983439 43.869821,118.000839 44.2791389,118.03512 C44.1207846,115.770343 44.0401403,113.569121 44.0401403,111.441589 C44.0401403,61.4845239 85.3354196,20.9863211 136.275728,20.9863211 C187.216037,20.9863211 228.511316,61.4845239 228.511316,111.441589 C228.511316,161.398654 190.385444,251.986321 139.445135,251.986321 C105.583789,251.986321 74.5837652,211.959198 57.6030686,170.445888 Z" transform="rotate(13 126.102 136.486)"/><path fill="#253238" d="M101.546886,98.9362756 L121.538069,110.478191 C124.054829,111.931243 124.917135,115.149411 123.464083,117.666171 C122.011031,120.18293 118.792863,121.045236 116.276103,119.592184 L96.2849192,108.050269 C93.7681595,106.597217 92.9058539,103.379049 94.3589058,100.862289 C95.8119577,98.3455293 99.0301259,97.4832237 101.546886,98.9362756 Z" transform="rotate(13 108.911 109.264)"/><path fill="#22537F" d="M179.609994,114.059837 L198.747357,101.151523 C201.156626,99.5264503 204.427107,100.162167 206.052179,102.571437 C207.677252,104.980706 207.041535,108.251186 204.632266,109.876259 L185.494903,122.784573 C183.085634,124.409646 179.815153,123.773929 178.190081,121.364659 C176.565008,118.95539 177.200725,115.68491 179.609994,114.059837 Z" transform="rotate(13 192.121 111.968)"/><path stroke="#ED5738" stroke-linecap="round" stroke-linejoin="round" stroke-width="6" d="M143.932286,122.307185 C140.431477,143.355051 141.8318,155.98377 148.133256,160.193343 C154.434712,164.402916 160.036006,166.507703 164.937138,166.507703 C159.335844,174.225254 153.73455,179.136423 148.133256,181.241209 C139.731315,184.398389 124.731355,180.799003 132.231335,173.653353" transform="rotate(13 147.565 152.35)"/><path fill="#ED5738" fill-rule="nonzero" d="M43.4445917,108.324786 C44.88355,107.503467 46.7158669,108.004162 47.5371859,109.44312 C48.3585049,110.882079 47.8578094,112.714396 46.4188511,113.535715 C38.1026154,118.2824 37.4265282,122.573055 43.8609884,128.763867 C45.0549485,129.912616 45.091599,131.811757 43.9428496,133.005718 C42.7941001,134.199678 40.8949588,134.236328 39.7009987,133.087579 C30.3074765,124.049753 31.7318745,115.010092 43.4445917,108.324786 Z" transform="rotate(13 40.736 120.928)"/><path fill="#ED5738" fill-rule="nonzero" d="M99.6827027,205.080467 C98.0617496,205.423508 96.469618,204.387556 96.1265771,202.766603 C95.7835362,201.145649 96.8194888,199.553518 98.4404419,199.210477 C119.447065,194.764864 136.433375,201.975125 148.836918,220.548793 C149.757059,221.926656 149.386001,223.789557 148.008138,224.709697 C146.630275,225.629838 144.767374,225.25878 143.847234,223.880917 C132.787585,207.319662 118.253559,201.150334 99.6827027,205.080467 Z" transform="rotate(13 122.702 211.576)"/><path fill="#ED5738" fill-rule="nonzero" d="M60.933397,218.702867 C60.0745612,217.28598 60.5269506,215.441143 61.943837,214.582307 C63.3607234,213.723471 65.2055607,214.175861 66.0643965,215.592747 C80.1961896,238.907035 97.7662993,250.3818 118.980228,250.3818 C140.123451,250.3818 157.62961,237.93079 171.672797,212.584647 C172.475776,211.135374 174.301586,210.611449 175.750859,211.414427 C177.200132,212.217406 177.724057,214.043216 176.921078,215.492489 C161.899785,242.603988 142.528138,256.3818 118.980228,256.3818 C95.5030248,256.3818 76.0855802,243.700569 60.933397,218.702867 Z" transform="rotate(13 118.898 233.71)"/><path fill="#1C2229" fill-rule="nonzero" d="M92.8355311,135.360751 L107.321314,128.928199 L93.0432127,123.82407 C91.4830501,123.266343 90.6704148,121.549455 91.2281411,119.989293 C91.7858673,118.42913 93.5027555,117.616495 95.0629181,118.174221 L116.401153,125.802204 C118.95095,126.713704 119.083626,130.269999 116.608834,131.368954 L95.2705997,140.844403 C93.756331,141.516828 91.983665,140.83438 91.3112393,139.320111 C90.6388137,137.805842 91.3212624,136.033176 92.8355311,135.360751 Z" transform="rotate(13 104.722 129.55)"/><circle cx="183.296" cy="146.796" r="6.5" fill="#1C2229" fill-rule="nonzero" transform="rotate(13 183.296 146.796)"/></g><path fill="#253238" d="M42.8027031,212.681863 L29.1194314,210.444794 C26.8302275,210.070533 25.2778591,207.911369 25.6521196,205.622165 C26.02638,203.332961 28.1855445,201.780592 30.4747484,202.154853 L35.643349,202.999864 L30.8042334,200.224567 C28.7920697,199.070564 28.0963928,196.503879 29.2503956,194.491715 C30.4043984,192.479551 32.9710835,191.783874 34.9832472,192.937877 L42.7756934,197.406949 C42.9435531,196.416164 43.1496621,195.438766 43.3961664,194.476435 C51.1623546,164.157933 58.6766509,154.955899 88.5411958,160.444439 C110.656233,42.7556732 185.285906,38.8400661 217.876598,90.1916022 C237.492147,49.1999171 262.809219,43.7426901 284.234489,51.671196 L286.864329,42.7638907 C287.52115,40.5392307 289.857051,39.2682456 292.081711,39.9250661 C294.306371,40.5818866 295.577356,42.9177881 294.920536,45.1424482 L291.959782,55.1705623 C296.43796,57.5707329 300.669714,60.4884474 304.552367,63.6866484 L322.810311,43.6488944 C324.372598,41.9343143 327.029024,41.8108563 328.743604,43.3731432 C330.458184,44.9354301 330.581642,47.5918557 329.019355,49.3064358 L310.775669,69.3285327 C310.862133,69.4145853 310.948343,69.5007298 311.034296,69.5869624 L325.828281,60.5634875 C327.808579,59.35562 330.393098,59.981799 331.600966,61.9620974 C332.808833,63.9423958 332.182654,66.5269148 330.202356,67.7347822 L316.778766,75.9223953 C319.929999,79.7528888 322.526012,83.5807977 324.435616,87.1032397 C393.796638,59.4974502 436.859793,111.498794 357.469263,167.285868 C373.229861,207.105155 324.435616,231.390136 303.450516,224.855515 C310.682823,261.153682 284.958898,287.629539 269.260199,291.789252 C271.491768,285.32952 273.733644,266.913509 273.733644,255.397438 C263.553726,236.466408 258.041056,231.593179 254.49493,207.105155 C240.92219,221.466616 212.00842,231.093019 185.752355,241.616952 C174.065354,246.301325 133.223519,250.862545 117.117139,236.466408 C117.117139,255.515246 121.375313,274.416948 114.596743,302.928205 C105.09066,308.684142 102.172235,274.416948 94.4834119,269.607043 C85.4350864,263.946673 77.7425674,274.84238 73.2773823,277.790107 C68.9524261,271.510448 46.761265,240.392601 42.8027031,212.681863 Z" transform="rotate(13 212.9 171.665)"/></g><g fill-rule="nonzero" transform="translate(401 297)"><path fill="#FFAA83" d="M187.497612,62.3081382 C188.271787,83.8861292 177.713803,197.980398 133.725478,266.417981 C124.086544,281.414354 126.649099,289.212633 119.470036,300.877579 C91.7255397,345.958403 45.1198119,354.365266 45.1198119,272.088728 C45.1198119,251.374908 61.4999012,233.334868 65.0488465,214.744066 C77.1990037,151.096657 105.358012,52.4995313 133.725478,33.0187061 C170.378811,7.84771727 186.516922,34.9741035 187.497612,62.3081382 Z"/><path fill="#5296FB" d="M186.310229,29.9904835 C187.138877,56.8046464 191.841102,100.892314 191.975756,141.062933 C192.11041,181.233552 78.3287744,211.412334 69.5621032,141.062933 C60.795432,70.7135321 99.699233,0.938007894 132.962489,0.938007894 C166.225745,0.938007894 185.465096,2.64292636 186.310229,29.9904835 Z"/><path fill="#FFF" d="M185.831264,146.719142 C144.006332,181.360258 103.991875,182.025281 66.8689497,148.548518 C65.6385101,147.438931 65.5405402,145.541964 66.6501277,144.311525 C67.7597152,143.081085 69.656682,142.983115 70.8871216,144.092702 C105.723664,175.507649 142.402292,174.898066 182.004063,142.098262 C183.280084,141.04141 185.171251,141.219081 186.228104,142.495102 C187.284956,143.771122 187.107285,145.66229 185.831264,146.719142 Z"/><path fill="#1D5EF8" d="M76.906479,142.005264 C81.8518186,120.328091 87.1360668,105.710579 92.9368702,97.9812598 C93.9314012,96.6560903 95.81189,96.3880549 97.1370594,97.3825859 C98.4622289,98.377117 98.7302643,100.257606 97.7357332,101.582775 C92.5787711,108.454203 87.5263721,122.430365 82.7561831,143.339791 C82.3876636,144.955143 80.7794187,145.965899 79.1640675,145.59738 C77.5487164,145.22886 76.5379596,143.620616 76.906479,142.005264 Z"/><path fill="#ED5738" d="M66.8518421,216.157615 L66.8518421,203.842857 C66.8518421,202.186003 68.1949878,200.842857 69.8518421,200.842857 C71.5086963,200.842857 72.8518421,202.186003 72.8518421,203.842857 L72.8518421,216.157615 C72.8518421,217.814469 71.5086963,219.157615 69.8518421,219.157615 C68.1949878,219.157615 66.8518421,217.814469 66.8518421,216.157615 Z"/><path fill="#ED5738" d="M118.589856,273.103276 C122.475227,263.085875 122.48168,247.296464 118.458651,225.855974 C112.20518,202.212736 110.997573,187.928561 115.447646,181.922932 C116.43406,180.591709 118.312875,180.312187 119.644098,181.298601 C120.97532,182.285015 121.254843,184.163831 120.268429,185.495053 C117.400032,189.36612 118.534657,202.705024 124.335136,224.639799 C128.566597,247.135928 128.566597,263.973138 124.183822,275.272964 C123.584679,276.817695 121.846726,277.584246 120.301995,276.985103 C118.757264,276.38596 117.990713,274.648007 118.589856,273.103276 Z"/><path fill="#FFAA83" d="M6.5,187.693784 C1.72328991,181.805345 3.2894673,179.528492 1.37233695,172.237915 C0.712174967,169.727412 3.72625613,165.751812 3.33450388,163.095599 C3.04331986,161.121273 0.0128470968,158.268769 0.0428766947,156.266408 C0.0962674424,152.706335 2.6510844,149.195513 3.33450388,145.548795 C3.93478857,142.345682 -0.500303724,139.752592 1.37233695,134.551357 C3.24497762,129.350122 8.45945702,128.783919 10.3589317,126.038538 C11.8693032,123.855543 4.05235387,120.637332 10.3589317,114.330754 C16.6655095,108.024176 35.4065229,105.657823 44.7527654,110.074344 C41.8950627,127.948457 57.8256793,128.963775 66.7874544,123.596169 C69.0503977,122.240791 68.3316616,111.253486 71.8047756,111.253486 C74.7232441,111.253486 82.3331626,111.253486 86.3811652,114.330754 C110.192883,132.43228 117.826701,145.356182 114.962787,182.333668 C113.533438,200.788729 62.093212,204.053583 44.7527654,200.435398 C34.7594547,198.350237 13.4078785,196.209398 6.5,187.693784 Z"/></g><g fill-rule="nonzero" transform="translate(392.5 237)"><polygon fill="#1E5B89" points="53.117 153.932 78.117 153.932 78.354 193.401 53.354 193.401" transform="rotate(12 65.736 173.667)"/><circle cx="80.5" cy="80.5" r="80.5" fill="#4C91FC"/><circle cx="80.5" cy="81.5" r="71.5" fill="#FFF"/><path fill="#FFAA83" d="M148.33732,58.8477743 C142.447008,86.5330202 124.762966,122.466058 101.725705,149.796753 C95.0196189,151.878631 87.8907643,153 80.5,153 C41.0116404,153 9,120.98836 9,81.5 C9,42.0116404 41.0116404,10 80.5,10 C112.071156,10 138.863127,30.4621241 148.337319,58.8477783 Z"/><g transform="translate(42 33)"><circle cx="39" cy="39" r="39" fill="#FFF"/><circle cx="40" cy="40" r="20" fill="#22537F"/><circle cx="40" cy="40" r="10" fill="#1C2229"/><circle cx="53.5" cy="31.5" r="9.5" fill="#FFF"/></g></g></g><g fill-rule="nonzero" transform="translate(137 543)"><path fill="#BFEAFF" d="M971.685656,369.449648 C954.595393,323.468702 929.570364,300.478228 896.610571,300.478228 C847.17088,300.478228 871.004185,228.086503 819.733395,228.086503 C786.356741,228.086503 786.356741,268.379014 738.554644,243.353985 C689.268696,217.552141 740.386082,173.045132 647,164.5 C553.613918,155.954868 575.067184,243.353985 536.614091,243.353985 C508.919954,243.353985 507.136478,199.321591 483.512201,195.745395 C459.887925,192.169198 456.656073,221.38079 438.955443,217.71859 C417.389345,213.256639 425.527379,176.205346 372.945081,176.205346 C320.362783,176.205346 338.244963,247.7781 325.427265,255.637091 C312.609568,263.496081 296.129671,237.25032 278.429041,268.379014 C260.728411,299.507708 291.392093,314.156505 265.611343,314.156505 C234.199337,314.156505 216.86569,332.587553 213.610402,369.449648 C215.924097,380.733604 237.53031,387.047065 278.429041,388.390031 C339.777137,390.404481 342.538365,373.097261 418.658926,376.1827 C494.779486,379.26814 507.680741,376.1827 617,376.1827 C726.319259,376.1827 706.911584,400.729589 790.372154,393.272964 C873.832724,385.816339 937.787615,401.235897 985.68945,398.155896 C1011.92724,396.468854 1007.25931,386.900105 971.685656,369.449648 Z"/><g transform="scale(-1 1) rotate(52 -55.629 -113.568)"><path fill="#8FD8FC" d="M124.039623,269.419233 C121.772742,274.608577 116.390744,276.521515 112.018593,273.691898 C107.646442,270.862281 86.3306389,251.670764 88.5975199,246.481419 C90.8644009,241.292074 115.855545,252.070001 120.227695,254.899618 C124.599846,257.729235 126.306504,264.229888 124.039623,269.419233 Z M119.610335,235.884484 C117.343454,241.073828 111.961455,242.986766 107.589304,240.157149 C103.217154,237.327532 81.9013503,218.136015 84.1682312,212.94667 C86.4351122,207.757325 111.426256,218.535252 115.798407,221.364869 C120.170557,224.194486 121.877216,230.695139 119.610335,235.884484 Z M118.044366,204.543198 C115.138454,209.237016 109.576864,210.101614 105.622208,206.474331 C101.667551,202.847048 83.0806941,179.83306 85.9866061,175.139243 C88.892518,170.445425 112.190789,185.849231 116.145446,189.476513 C120.100103,193.103796 120.950278,199.849381 118.044366,204.543198 Z M115.88163,172.056157 C112.467308,176.212033 106.860985,176.126083 103.359557,171.864182 C99.8581295,167.602281 84.083572,141.663649 87.4978936,137.507773 C90.9122152,133.351897 112.222482,152.552521 115.72391,156.814423 C119.225338,161.076324 119.295951,167.90028 115.88163,172.056157 Z M118.355722,138.982632 C114.656816,142.760485 109.077981,142.080115 105.895046,137.462983 C102.712112,132.84585 88.8548936,105.332478 92.5538004,101.554625 C96.2527073,97.7767717 116.107039,119.165033 119.289973,123.782165 C122.472908,128.399298 122.054629,135.204779 118.355722,138.982632 Z M120.608991,107.103296 C116.38582,109.952666 111.01614,107.989108 108.615476,102.717566 C106.214812,97.4460248 96.9252392,67.2198025 101.14841,64.3704326 C105.371582,61.5210627 121.508267,87.1275436 123.908932,92.3990851 C126.309596,97.6706265 124.832162,104.253926 120.608991,107.103296 Z M126.307298,77.9815601 C121.622148,79.4034068 116.85296,75.8151356 115.655019,69.9669319 C114.457078,64.1187283 111.911242,31.9959288 116.596392,30.5740821 C121.281543,29.1522354 131.423509,58.9697659 132.62145,64.8179695 C133.819391,70.6661731 130.992449,76.5597134 126.307298,77.9815601 Z M138.777259,48.8515988 C133.949414,48.9541718 129.965615,44.1520257 129.879195,38.1257053 C129.792775,32.099385 133.248863,0.102820317 138.076708,0.000247349328 C142.904552,-0.102325618 147.275947,31.7279354 147.362367,37.7542558 C147.448787,43.7805761 143.605103,48.7490259 138.777259,48.8515988 Z M151.580597,51.3167049 C149.835134,47.3209902 151.149234,42.3155887 154.515722,40.1368277 C157.88221,37.9580667 177.125002,29.6592309 178.870465,33.6549456 C180.615928,37.6506602 164.203091,52.4278295 160.836603,54.6065905 C157.470115,56.7853515 153.32606,55.3124195 151.580597,51.3167049 Z M139.88501,81.6599185 C137.805969,77.9081697 138.683022,72.7629941 141.843963,70.1678471 C145.004903,67.5727002 163.429602,56.8710478 165.508643,60.6227966 C167.587684,64.3745454 152.533776,81.1589844 149.372835,83.7541314 C146.211895,86.3492783 141.96405,85.4116673 139.88501,81.6599185 Z M131.509145,111.510456 C129.484215,107.715114 130.434907,102.589353 133.632577,100.061749 C136.830246,97.5341443 155.405582,87.2255157 157.430512,91.0208579 C159.455443,94.8162001 144.163168,111.278294 140.965499,113.805899 C137.76783,116.333503 133.534076,115.305798 131.509145,111.510456 Z M125.441651,145.244947 C123.101881,141.72803 123.607181,136.509391 126.57027,133.588791 C129.533359,130.668191 147.121664,118.052677 149.461434,121.569594 C151.801204,125.086511 138.006416,143.404075 135.043327,146.324675 C132.080238,149.245275 127.781421,148.761865 125.441651,145.244947 Z M125.242044,176.171348 C123.056698,172.510201 123.785694,167.330903 126.8703,164.603063 C129.954907,161.875222 148.061542,150.39742 150.246887,154.058568 C152.432232,157.719715 137.868742,175.133409 134.784135,177.861249 C131.699529,180.58909 127.427389,179.832495 125.242044,176.171348 Z M125.914934,201.956743 C124.2851,197.889317 125.741916,192.942787 129.168823,190.908359 C132.59573,188.873931 152.064745,181.397571 153.694579,185.464998 C155.324412,189.532424 138.49788,203.603386 135.070973,205.637814 C131.644066,207.672241 127.544768,206.02417 125.914934,201.956743 Z M128.480357,227.037434 C127.14797,222.812584 128.953433,218.039423 132.512973,216.376281 C136.072513,214.713138 156.002781,209.330599 157.335168,213.555449 C158.667556,217.780299 140.897515,230.012673 137.337975,231.675815 C133.778435,233.338958 129.812745,231.262284 128.480357,227.037434 Z M131.166627,260.162036 C129.364138,256.204008 130.606269,251.171454 133.941004,248.921511 C137.27574,246.671568 156.396609,237.965223 158.199098,241.923251 C160.001587,245.881278 143.80313,261.004853 140.468394,263.254796 C137.133659,265.504739 132.969115,264.120063 131.166627,260.162036 Z" transform="matrix(-1 0 0 1 263 0)"/><path fill="#465197" d="M133.226603,316.527537 C133.536379,318.02096 132.793033,319.537334 131.566294,319.914453 C130.339554,320.291572 129.093963,319.386628 128.784187,317.893204 C103.225019,194.672863 106.822942,103.435663 139.812884,44.2237089 C140.523107,42.9489674 141.947704,42.6164978 142.994812,43.4811173 C144.04192,44.3457368 144.315019,46.0800315 143.604797,47.354773 C111.493885,104.989001 107.956178,194.699221 133.226603,316.527537 Z" transform="matrix(-1 0 0 1 256 0)"/><path fill="#BFEAFF" d="M27.7506963,329.914664 C24.2262837,333.808784 18.7115385,333.343625 15.4331682,328.875701 C12.1547979,324.407777 -2.34927328,297.590311 1.17513934,293.696191 C4.69955195,289.80207 24.917825,310.305919 28.1961953,314.773843 C31.4745656,319.241767 31.275109,326.020543 27.7506963,329.914664 Z M30.6339862,297.609019 C26.7022216,300.863338 21.2939016,299.46089 18.5541653,294.476563 C15.814429,289.492236 4.49301053,260.458731 8.42477508,257.204411 C12.3565396,253.950092 30.0526079,277.707304 32.7923442,282.691631 C35.5320805,287.675958 34.5657507,294.3547 30.6339862,297.609019 Z M38.0842889,265.806273 C33.9363482,268.627706 28.6482172,266.652174 26.2729179,261.393799 C23.8976186,256.135424 14.6813842,226.001573 18.829325,223.18014 C22.9772658,220.358707 38.9186409,245.918112 41.2939403,251.176487 C43.6692396,256.434862 42.2322297,262.984841 38.0842889,265.806273 Z M45.1233455,235.122929 C40.6128981,236.921307 35.7291085,233.743883 34.2150959,228.025956 C32.7010833,222.308029 28.3398102,190.569891 32.8502576,188.771513 C37.3607049,186.973136 49.034858,215.795528 50.5488705,221.513455 C52.0628831,227.231383 49.6337928,233.324552 45.1233455,235.122929 Z M54.355694,203.049367 C49.6311759,202.542149 46.1473613,197.275675 46.5743763,191.286369 C47.0013913,185.297062 53.092701,153.990844 57.8172191,154.498062 C62.5417372,155.00528 64.1103847,187.13386 63.6833697,193.123167 C63.2563547,199.112473 59.080212,203.556584 54.355694,203.049367 Z M72.1185607,176.174028 C67.8559715,173.622852 66.1415771,167.174138 68.2893535,161.770422 C70.43713,156.366706 85.2665597,129.81854 89.5291488,132.369716 C93.791738,134.920892 85.8733308,165.605333 83.7255544,171.009048 C81.5777779,176.412764 76.3811498,178.725204 72.1185607,176.174028 Z M85.2665046,185.155412 C84.8214742,180.707757 87.4961244,176.644871 91.240503,176.080703 C94.9848817,175.516534 115.174649,176.134421 115.61968,180.582077 C116.06471,185.029732 96.5964794,191.622919 92.8521007,192.187088 C89.1077221,192.751256 85.711535,189.603068 85.2665046,185.155412 Z M67.4775867,214.708808 C66.0507534,210.583974 67.7091774,205.773807 71.1817804,203.965 C74.6543834,202.156193 94.2008248,195.921183 95.6276581,200.046017 C97.0544914,204.170852 79.8214038,217.093539 76.3488008,218.902346 C72.8761979,220.711153 68.90442,218.833642 67.4775867,214.708808 Z M54.818852,241.985862 C53.4509007,237.831098 55.1774838,233.057181 58.6752833,231.323019 C62.1730828,229.588857 81.8052234,223.773406 83.1731748,227.928169 C84.5411261,232.082933 67.1268727,244.634586 63.6290732,246.368748 C60.1312737,248.10291 56.1868033,246.140625 54.818852,241.985862 Z M43.7946198,273.601316 C42.08025,269.644778 43.3907214,264.675547 46.7216397,262.502228 C50.052558,260.328908 69.0817782,252.027131 70.7961481,255.983669 C72.5105179,259.940207 56.2608404,274.6568 52.9299221,276.830119 C49.5990038,279.003439 45.5089897,277.557854 43.7946198,273.601316 Z M38.8537024,303.832098 C37.3104269,299.770882 38.8310381,294.892622 42.2500826,292.9362 C45.6691272,290.979778 65.026336,283.911477 66.5696116,287.972694 C68.1128872,292.03391 51.2578225,305.686744 47.8387779,307.643166 C44.4197333,309.599588 40.396978,307.893315 38.8537024,303.832098 Z M35.5402476,329.232929 C34.5951178,324.904561 36.7829467,320.424434 40.4269002,319.226286 C44.0708538,318.028138 64.1342135,315.191975 65.0793433,319.520344 C66.0244731,323.848712 47.4934715,333.702546 43.849518,334.900694 C40.2055645,336.098842 36.4853774,333.561297 35.5402476,329.232929 Z" transform="matrix(-1 0 0 1 116.254 0)"/><path fill="#465197" d="M39.2339204,390.088974 C39.376114,391.618445 38.4950946,393.00178 37.2661086,393.178739 C36.0371226,393.355699 34.9255619,392.259272 34.7833684,390.729801 C26.4153343,300.721071 42.4007342,230.399138 82.8014204,180.016058 C83.6753332,178.926215 85.0936985,178.924382 85.9694279,180.011965 C86.8451573,181.099547 86.8466299,182.8647 85.972717,183.954544 C46.6135495,233.038762 31.0133332,301.66622 39.2339204,390.088974 Z" transform="matrix(-1 0 0 1 119.254 0)"/></g><g fill="#FFF" transform="translate(611 206)"><path d="M65.6709395,0.0449528298 C68.8721243,0.100829718 71.4035865,3.79038571 71.3251186,8.28580679 C71.2466508,12.7812279 68.2360377,36.5422038 65.0348529,36.4863269 C61.8336682,36.43045 59.6541352,12.5788798 59.7326031,8.08345868 C59.8110709,3.5880376 62.4697547,-0.0109240584 65.6709395,0.0449528298 Z"/><path d="M41.6405868,21.3040193 C44.3257352,19.5602635 48.487586,21.2034683 50.9363408,24.97422 C53.3850955,28.7449716 64.1761533,50.1272269 61.4910049,51.8709827 C58.8058565,53.6147385 43.661313,35.0596699 41.2125582,31.2889182 C38.7638034,27.5181666 38.9554384,23.0477751 41.6405868,21.3040193 Z"/><path d="M28.0530879,43.8519773 C30.7852368,40.9221063 36.3354737,41.6572806 40.4498891,45.494035 C44.5643044,49.3307893 64.1380519,72.0241096 61.4059031,74.9539806 C58.6737542,77.8838516 34.670318,59.9407907 30.5559027,56.1040363 C26.4414874,52.2672819 25.320939,46.7818483 28.0530879,43.8519773 Z"/><path d="M20.2772269,68.3293151 C23.0899517,64.7291914 29.4685303,65.012747 34.524181,68.9626541 C39.5798316,72.9125613 64.0727322,96.7484487 61.2600073,100.348572 C58.4472825,103.948696 29.3940538,85.9497623 24.3384032,81.9998552 C19.2827526,78.049948 17.464502,71.9294387 20.2772269,68.3293151 Z"/><path d="M11.2368437,97.9361564 C13.988737,93.5322065 21.2330852,93.0948809 27.4175483,96.9593624 C33.6020114,100.823844 64.1220459,124.858975 61.3701526,129.262925 C58.6182593,133.666875 23.6365242,116.771957 17.4520611,112.907476 C11.267598,109.042994 8.48495035,102.340106 11.2368437,97.9361564 Z"/><path d="M1.0873589,131.317401 C3.16150296,125.914071 10.9941306,123.895032 18.5820224,126.80775 C26.1699142,129.720469 64.6714702,149.525535 62.5973262,154.928865 C60.5231821,160.332195 18.6587741,149.287658 11.0708823,146.374939 C3.48299051,143.462221 -0.986785173,136.720731 1.0873589,131.317401 Z"/><path d="M88.8953121,21.3040193 C91.5804605,23.0477751 91.7720955,27.5181666 89.3233407,31.2889182 C86.8745859,35.0596699 71.7300424,53.6147385 69.044894,51.8709827 C66.3597455,50.1272269 77.1508033,28.7449716 79.5995581,24.97422 C82.0483129,21.2034683 86.2101637,19.5602635 88.8953121,21.3040193 Z"/><path d="M102.482811,43.8519773 C105.21496,46.7818483 104.094412,52.2672819 99.9799962,56.1040363 C95.8655808,59.9407907 71.8621447,77.8838516 69.1299958,74.9539806 C66.397847,72.0241096 85.9715945,49.3307893 90.0860098,45.494035 C94.2004252,41.6572806 99.7506621,40.9221063 102.482811,43.8519773 Z"/><path d="M110.258672,68.3293151 C113.071397,71.9294387 111.253146,78.049948 106.197496,81.9998552 C101.141845,85.9497623 72.0886164,103.948696 69.2758916,100.348572 C66.4631667,96.7484487 90.9560673,72.9125613 96.0117179,68.9626541 C101.067369,65.012747 107.445947,64.7291914 110.258672,68.3293151 Z"/><path d="M119.299055,97.9361564 C122.050949,102.340106 119.268301,109.042994 113.083838,112.907476 C106.899375,116.771957 71.9176396,133.666875 69.1657463,129.262925 C66.413853,124.858975 96.9338875,100.823844 103.118351,96.9593624 C109.302814,93.0948809 116.547162,93.5322065 119.299055,97.9361564 Z"/><path d="M129.44854,131.317401 C131.522684,136.720731 127.052908,143.462221 119.465017,146.374939 C111.877125,149.287658 70.0127168,160.332195 67.9385727,154.928865 C65.8644287,149.525535 104.365985,129.720469 111.953876,126.80775 C119.541768,123.895032 127.374396,125.914071 129.44854,131.317401 Z"/><path d="M64.5528962,45.3358464 C64.5528962,44.7835616 65.0006115,44.3358464 65.5528962,44.3358464 C66.105181,44.3358464 66.5528962,44.7835616 66.5528962,45.3358464 L66.5528962,177.835846 C66.5528962,178.388131 66.105181,178.835846 65.5528962,178.835846 C65.0006115,178.835846 64.5528962,178.388131 64.5528962,177.835846 L64.5528962,45.3358464 Z"/></g><g fill="#FFF" transform="translate(710 265)"><path d="M80.209125,0.753563433 C82.3120293,1.64619334 83.0005918,4.76377885 81.7470724,7.71688555 C80.4935529,10.6699923 72.1505851,25.5850557 70.0476809,24.6924257 C67.9447766,23.7997958 72.8782629,7.43749341 74.1317823,4.4843867 C75.3853017,1.53128 78.1062207,-0.139066477 80.209125,0.753563433 Z"/><path d="M58.6286668,8.39492776 C60.8712057,7.95902234 63.1853816,10.1585786 63.7975232,13.3077742 C64.4096648,16.4569698 65.8334286,33.4874461 63.5908897,33.9233515 C61.3483507,34.359257 56.2887128,18.0355229 55.6765712,14.8863274 C55.0644296,11.7371318 56.3861278,8.83083318 58.6286668,8.39492776 Z"/><path d="M43.6124769,19.6803268 C46.203154,18.4722743 49.678571,20.4422052 51.3750381,24.0802908 C53.0715053,27.7183763 59.9552793,47.9638022 57.3646023,49.1718547 C54.7739252,50.3799072 43.6898339,32.0931215 41.9933668,28.455036 C40.2968996,24.8169504 41.0217999,20.8883793 43.6124769,19.6803268 Z"/><path d="M31.9254358,33.7955906 C34.7485759,32.1656499 38.892723,34.0582111 41.1816474,38.0227444 C43.4705717,41.9872777 53.3033559,64.3034716 50.4802158,65.9334123 C47.6570756,67.563353 33.2470769,47.8898152 30.9581526,43.9252819 C28.6692282,39.9607486 29.1022956,35.4255313 31.9254358,33.7955906 Z"/><path d="M18.0307179,50.9664303 C21.0284723,48.7884342 25.9380837,50.4354913 28.9966418,54.6452354 C32.0551999,58.8549795 45.8221586,82.9140157 42.8244041,85.0920118 C39.8266497,87.2700079 21.1993707,66.7422011 18.1408126,62.532457 C15.0822545,58.3227129 15.0329634,53.1444264 18.0307179,50.9664303 Z"/><path d="M2.39335879,70.3378817 C5.20985789,67.3175562 10.9314485,68.0754277 15.172889,72.030635 C19.4143296,75.9858423 39.5923816,99.3797783 36.7758825,102.400104 C33.9593834,105.420429 9.21488408,86.9234085 4.97344353,82.9682012 C0.732002972,79.0129939 -0.423140313,73.3582072 2.39335879,70.3378817 Z"/><path d="M89.8914495,21.0259119 C91.2017917,22.8972745 90.1336572,25.9060194 87.5057043,27.7461319 C84.8777514,29.5862443 69.898734,37.8138361 68.5883918,35.9424735 C67.2780496,34.0711109 80.1325826,22.8094409 82.7605355,20.9693285 C85.3884884,19.129216 88.5811073,19.1545493 89.8914495,21.0259119 Z"/><path d="M92.8536956,39.5750705 C93.8780889,42.2437063 91.6705237,45.5732419 87.9229608,47.0117965 C84.1753979,48.4503512 63.4991011,53.9051071 62.4747078,51.2364714 C61.4503145,48.5678356 80.4657417,38.7863663 84.2133046,37.3478116 C87.9608675,35.909257 91.8293023,36.9064348 92.8536956,39.5750705 Z"/><path d="M91.4553633,57.8472426 C92.3539084,60.9808417 89.5150044,64.5440379 85.1144938,65.805864 C80.7139831,67.0676902 56.6819098,71.2096227 55.7833647,68.0760236 C54.8848196,64.9424244 77.4600635,55.7199238 81.8605741,54.4580977 C86.2610848,53.1962716 90.5568182,54.7136434 91.4553633,57.8472426 Z"/><path d="M89.5225194,79.850993 C90.1659603,83.5001276 86.5333632,87.1908347 81.4088866,88.0944182 C76.2844101,88.9980017 48.6252541,90.8248749 47.9818133,87.1757403 C47.3383724,83.5266058 73.9543046,75.7833166 79.0787811,74.8797331 C84.2032576,73.9761496 88.8790785,76.2018585 89.5225194,79.850993 Z"/><path d="M87.3145533,104.648271 C87.2424788,108.777416 82.4833934,112.0427 76.6848385,111.941485 C70.8862837,111.840271 40.2374701,107.956941 40.3095446,103.827796 C40.3816191,99.6986509 71.1472885,96.8873144 76.9458434,96.9885286 C82.7443982,97.0897427 87.3866278,100.519126 87.3145533,104.648271 Z"/><path d="M67.1641867,30.337783 C67.3710762,29.8257135 67.9539076,29.5783162 68.4659771,29.7852057 C68.9780466,29.9920952 69.2254439,30.5749267 69.0185544,31.0869962 L33.6018763,118.746351 C33.3949867,119.25842 32.8121553,119.505817 32.3000858,119.298928 C31.7880163,119.092038 31.540619,118.509207 31.7475085,117.997137 L67.1641867,30.337783 Z"/></g><path fill="#8FD8FC" d="M790.197469,389.467419 C780.645387,374.277733 758.84846,366.682891 724.806689,366.682891 C673.744033,366.682891 682.855048,339.12576 629.901182,339.12576 C576.947316,339.12576 608.765303,234.981446 480.014144,229.471537 C351.262984,223.961629 380.410444,290.090857 340.695045,290.090857 C300.979645,290.090857 279.625039,257.68765 231.004894,259.975776 C182.38475,262.263902 162.772439,335.012755 143.22994,339.12576 C123.687442,343.238764 138.186715,324.730243 84.6024464,324.730243 C48.8796005,324.730243 23.663474,338.714459 8.95406684,366.682891 C-11.539827,381.872576 9.73338427,389.467419 72.7737005,389.467419 C95.982261,389.467419 159.904578,382.066281 231.004894,380.007508 C271.129615,378.845661 344.38446,400.983832 436.516325,400.983832 C480.014144,400.983832 517.288695,391.094594 602.312357,389.467419 C658.994799,388.382635 721.62317,388.382635 790.197469,389.467419 Z"/></g></g></svg>