<svg xmlns="http://www.w3.org/2000/svg" viewBox="-3.192 -2.497 1024 1024"><path fill="#E2E6E8" d="M1017.475 835.503c0 60.751-49.249 110-110 110h-791c-60.752 0-110-49.249-110-110v-608c0-60.751 49.248-110 110-110h791c60.751 0 110 49.249 110 110v608z"/><path fill="#FD423D" d="M1017.475 335.503h-1011v-108c0-60.751 49.248-110 110-110h791c60.751 0 110 49.249 110 110v108z"/><path fill="#7491AF" d="M264.939 458.175c0 13.419-8.647 24.302-19.314 24.302h-87.306c-10.667 0-19.314-10.882-19.314-24.302v-33.796c0-13.421 8.646-24.302 19.314-24.302h87.306c10.667 0 19.314 10.88 19.314 24.302v33.796zm0 151.728c0-13.421-8.647-24.303-19.314-24.303h-87.306c-10.667 0-19.314 10.882-19.314 24.303v33.796c0 13.421 8.646 24.302 19.314 24.302h87.306c10.667 0 19.314-10.881 19.314-24.302v-33.796zm0 185.521c0-13.42-8.647-24.302-19.314-24.302h-87.306c-10.667 0-19.314 10.882-19.314 24.302v33.797c0 13.42 8.646 24.302 19.314 24.302h87.306c10.667 0 19.314-10.882 19.314-24.302v-33.797zm206.668-371.045c0-13.421-8.646-24.302-19.313-24.302h-87.306c-10.667 0-19.314 10.88-19.314 24.302v33.796c0 13.419 8.647 24.302 19.314 24.302h87.306c10.667 0 19.313-10.882 19.313-24.302v-33.796zm0 185.524c0-13.421-8.646-24.303-19.313-24.303h-87.306c-10.667 0-19.314 10.882-19.314 24.303v33.796c0 13.421 8.647 24.302 19.314 24.302h87.306c10.667 0 19.313-10.881 19.313-24.302v-33.796zm0 185.521c0-13.42-8.646-24.302-19.313-24.302h-87.306c-10.667 0-19.314 10.882-19.314 24.302v33.797c0 13.42 8.647 24.302 19.314 24.302h87.306c10.667 0 19.313-10.882 19.313-24.302v-33.797zm206.669-371.045c0-13.421-8.646-24.302-19.313-24.302h-87.307c-10.668 0-19.316 10.88-19.316 24.302v33.796c0 13.419 8.648 24.302 19.316 24.302h87.307c10.666 0 19.313-10.882 19.313-24.302v-33.796zm0 185.524c0-13.421-8.646-24.303-19.313-24.303h-87.307c-10.668 0-19.316 10.882-19.316 24.303v33.796c0 13.421 8.648 24.302 19.316 24.302h87.307c10.666 0 19.313-10.881 19.313-24.302v-33.796zm0 185.521c0-13.42-8.646-24.302-19.313-24.302h-87.307c-10.668 0-19.316 10.882-19.316 24.302v33.797c0 13.42 8.648 24.302 19.316 24.302h87.307c10.666 0 19.313-10.882 19.313-24.302v-33.797zm206.668-371.045c0-13.421-8.648-24.302-19.314-24.302h-87.307c-10.666 0-19.314 10.88-19.314 24.302v33.796c0 13.419 8.648 24.302 19.314 24.302h87.307c10.666 0 19.314-10.882 19.314-24.302v-33.796zm0 185.524c0-13.421-8.648-24.303-19.314-24.303h-87.307c-10.666 0-19.314 10.882-19.314 24.303v33.796c0 13.421 8.648 24.302 19.314 24.302h87.307c10.666 0 19.314-10.881 19.314-24.302v-33.796zm0 185.521c0-13.42-8.648-24.302-19.314-24.302h-87.307c-10.666 0-19.314 10.882-19.314 24.302v33.797c0 13.42 8.648 24.302 19.314 24.302h87.307c10.666 0 19.314-10.882 19.314-24.302v-33.797z"/><circle cx="745.9" cy="199.102" r="58.669" fill="#E2E6E8"/><circle cx="275.9" cy="199.102" r="58.669" fill="#E2E6E8"/><path fill="#4E5963" d="M317.569 194.408c0 22.333-18.104 40.437-40.436 40.437-22.333 0-40.437-18.104-40.437-40.437V88.651c0-22.332 18.104-40.437 40.437-40.437 22.332 0 40.436 18.104 40.436 40.437v105.757zM787.252 88.651c0-22.333-18.104-40.437-40.437-40.437-22.331 0-40.437 18.104-40.437 40.437v105.756c0 22.332 18.105 40.437 40.437 40.437 22.333 0 40.437-18.104 40.437-40.437V88.651z"/></svg>