<?xml version="1.0" encoding="iso-8859-1"?>
<!-- Uploaded to: SVG Repo, www.svgrepo.com, Generator: SVG Repo Mixer Tools -->
<svg fill="#000000" version="1.1" id="Layer_1" xmlns="http://www.w3.org/2000/svg" xmlns:xlink="http://www.w3.org/1999/xlink" 
	 viewBox="0 0 282.829 282.829" xml:space="preserve">
<g>
	<g>
		<g>
			<path d="M52.84,137.594l2.828-0.236c-1.516-18.316,4-37.212,15.136-51.852l-2.256-1.716
				C56.992,98.982,51.268,118.59,52.84,137.594z"/>
			<path d="M74.564,76.782l2.04,1.968c4.368-4.516,9.316-8.484,14.716-11.8l-1.484-2.416C84.236,67.974,79.1,72.094,74.564,76.782z"
				/>
			
				<rect x="181.511" y="222.906" transform="matrix(-0.9475 0.3197 -0.3197 -0.9475 429.6451 388.5796)" width="2.832" height="13.3"/>
			
				<rect x="152.365" y="197.408" transform="matrix(-0.3196 -0.9475 0.9475 -0.3196 39.7218 426.1693)" width="41.002" height="2.832"/>
			<path d="M276.86,169.514l-0.38-0.408l-44.204-3.092c4.68-12.776,7.284-26.54,7.284-40.924c0-66.048-53.736-119.78-119.78-119.78
				S0,59.042,0,125.09c0,66.048,53.736,119.78,119.78,119.78c19.832,0,38.528-4.888,55.016-13.456
				c0.824,2.492,1.652,5.004,2.468,7.476c2.112,6.384,4.224,12.768,6.32,19.156c2.356,7.168,5.404,15.076,11.736,18.172
				c1.768,0.864,3.716,1.3,5.82,1.3c2.092,0,4.348-0.428,6.744-1.284l0.376-0.156l0.368-0.144l0.404-0.144
				c4.7-1.96,7.82-4.808,9.268-8.46c2.6-6.552-0.472-14.452-3.556-21.336c-2.724-6.088-5.436-12.184-8.152-18.28
				c-2.084-4.684-4.192-9.412-6.312-14.164c7.956-7.244,14.928-15.536,20.716-24.66c11.112,2.988,22.128,5.708,30.928,6.356
				c1.412,0.104,2.876,0.156,4.372,0.156c8.28,0,17.424-1.652,22.084-5.672c2.788-2.408,4.28-5.108,4.436-8.024
				C283.008,177.998,281.06,174.01,276.86,169.514z M119.78,240.902c-63.86,0-115.812-51.952-115.812-115.812
				S55.92,9.278,119.78,9.278c63.86,0,115.812,51.952,115.812,115.812c0,14.304-2.644,27.988-7.416,40.636l-6.883-0.482
				c4.955-12.433,7.719-25.969,7.719-40.154c0-60.232-49-109.236-109.232-109.236c-60.236,0-109.236,49-109.236,109.236
				c0,60.236,49,109.236,109.236,109.236c18.693,0,36.28-4.749,51.68-13.06c0.694,2.111,1.387,4.238,2.08,6.34
				C157.46,236.074,139.18,240.902,119.78,240.902z M177.588,123.386l-0.244-0.668c-6.628-18.192-13.916-37.004-22.28-57.512
				c-0.96-2.352-2.02-3.204-4.388-4.724l-0.604-0.392l-6.984,2.7l19.952,51.584l-3.196,1.248L139.892,64.03l-9.924,3.84
				l20.012,51.736c-1.108,0.416-2.592,0.996-3.696,1.428l-20.008-51.736l-9.924,3.84l19.952,51.592l-3.044,1.168l-19.956-51.584
				l-6.984,2.704l-0.188,0.696c-0.14,0.532-0.264,0.932-0.364,1.256c-0.464,1.504-0.496,1.964,0.192,3.836
				c7.596,20.764,14.868,39.584,22.22,57.532l0.688,1.744c2.328,5.98,4.516,10.956,7.716,11.284
				c6.956,0.712,11.22,3.26,14.116,6.928l-85.908-6.02l-0.064-0.004H64.66c-1.336,0.028-2.676,0.056-4.008,0.064l-2.084,0.012
				l0.772,1.928c5.056,12.636,19.408,22.804,40.416,28.636c1.16,0.324,2.356,0.564,3.532,0.852l0.02,0.016l0.008-0.008
				c2.284,0.56,4.584,1.064,6.908,1.5l0.604,0.452l0.232-0.308c8.612,1.552,17.368,2.264,25.78,2.168l0.464,0.348l0.264-0.352
				c8.156-0.136,15.92-1.012,22.812-2.608c0.504,1.604,1.012,3.204,1.524,4.808c-12.208,7.74-26.628,12.288-42.124,12.288
				c-43.556,0-78.992-35.432-78.992-78.988c0-43.556,35.436-78.988,78.992-78.988c43.556,0,78.992,35.432,78.992,78.988
				c0,13.744-3.584,26.64-9.8,37.888l-12.548-0.88c-3.856-8.272-5.54-16.016,2.644-25.156
				C181.352,134.378,179.672,129.066,177.588,123.386z M145.184,175.678l-8.356,11.128c-2.14,0.02-4.292,0-6.476-0.084l7.824-10.416
				l-1.812-1.364l-8.736,11.632c-2.048-0.124-4.096-0.292-6.16-0.508l7.884-10.496l-1.812-1.364l-8.684,11.564
				c-1.968-0.244-3.92-0.544-5.88-0.876l7.552-10.06l-1.812-1.364l-8.248,10.984c-1.776-0.34-3.532-0.728-5.288-1.14l6.964-9.272
				l-1.812-1.364l-7.552,10.056c-0.748-0.192-1.512-0.34-2.252-0.544c-1.088-0.304-2.092-0.656-3.14-0.98l5.932-7.9l-1.812-1.364
				l-6.42,8.544c-1.776-0.592-3.468-1.232-5.12-1.888l4.528-6.028l-1.812-1.364l-4.908,6.536c-1.688-0.724-3.272-1.5-4.82-2.292
				l2.716-3.616l-1.812-1.364l-2.94,3.912c-8.604-4.764-14.816-10.612-18.08-17.236c0.608-0.008,1.216-0.024,1.824-0.036l88,6.168
				c2.02,3.708,3.228,8.152,4.496,12.876c0.544,2.028,1.088,4.064,1.716,6.06c0.22,0.7,0.448,1.404,0.668,2.104
				c-6.036,1.392-12.752,2.248-19.864,2.476l7.324-9.748L145.184,175.678z M201.036,125.09c0-44.804-36.452-81.256-81.256-81.256
				c-44.804,0-81.256,36.452-81.256,81.256s36.452,81.256,81.256,81.256c15.728,0,30.372-4.572,42.824-12.344
				c2.676,8.384,5.404,16.745,8.135,25.067c-15.162,8.257-32.512,12.985-50.959,12.985c-58.98,0-106.968-47.984-106.968-106.964
				S60.8,18.126,119.78,18.126c58.98,0,106.964,47.984,106.964,106.964c0,14.143-2.803,27.631-7.821,39.988L191.4,163.15
				C197.496,151.79,201.036,138.866,201.036,125.09z M204.004,228.862c2.708,6.1,5.424,12.196,8.152,18.288
				c2.844,6.36,5.7,13.608,3.508,19.136c-1.176,2.956-3.704,5.212-7.732,6.888l-0.512,0.18l-0.504,0.212
				c-4.112,1.468-7.492,1.5-10.352,0.104c-5.344-2.612-8.108-9.896-10.284-16.512c-2.1-6.388-4.212-12.772-6.324-19.16
				c-6.124-18.532-12.46-37.696-18.384-56.636c-0.608-1.96-1.148-3.96-1.68-5.952c-3.056-11.376-6.212-23.144-23.024-24.864
				c-1.736-0.176-4.368-6.944-5.36-9.496l-0.708-1.788c-7.34-17.916-14.592-36.704-22.18-57.432c-0.42-1.144-0.42-1.144-0.148-2.028
				c0.06-0.192,0.124-0.408,0.2-0.66l3.012-1.164l19.948,51.576l8.34-3.196l-19.96-51.6l4.636-1.792l20.044,51.812l1.36-0.592
				c0.752-0.328,5.404-2.128,6.224-2.408l1.4-0.476l-20.044-51.808l4.636-1.792l19.96,51.596l8.476-3.308l-19.952-51.576
				l2.996-1.156c1.624,1.076,2.1,1.58,2.692,3.02c8.352,20.472,15.628,39.252,22.244,57.408l0.248,0.672
				c0.92,2.512,3.368,9.18,2.032,10.676c-11.28,12.588-5.696,23.416-0.296,33.888c0.944,1.832,1.892,3.668,2.756,5.532
				C187.816,192.494,196.044,210.982,204.004,228.862z M185.156,180.138c6.941,1.145,14.784,3.091,22.733,5.211
				c-3.886,5.7-8.259,11.041-13.152,15.874C191.57,194.19,188.383,187.151,185.156,180.138z M198.564,209.73
				c-0.94-2.102-1.895-4.21-2.841-6.315c5.442-5.277,10.334-11.115,14.592-17.416c1.378,0.372,2.757,0.747,4.133,1.123
				c0.832,0.228,1.668,0.456,2.504,0.68C211.732,195.85,205.556,203.214,198.564,209.73z M276.52,187.586
				c-4.856,4.192-16.048,5.456-24.392,4.832c-10.256-0.752-23.816-4.452-36.932-8.036c-10.916-2.98-22.064-5.964-31.464-7.34
				c-0.58-1.26-1.156-2.528-1.74-3.78c-0.884-1.896-1.848-3.768-2.808-5.636c-0.452-0.872-0.892-1.732-1.324-2.588l97.304,6.82
				c3.388,3.724,4.964,6.9,4.812,9.692C279.864,183.702,278.728,185.674,276.52,187.586z"/>
		</g>
	</g>
</g>
</svg>