<svg xmlns="http://www.w3.org/2000/svg" enable-background="new 0 0 1364 960" viewBox="-13.948 44.998 1391.896 916.669"><path fill="#85AEE6" d="M1109.752,221.91c1.877-3.192,1.396-7.437-0.671-10.503c-2.067-3.066-5.495-5.03-9.083-5.928  c-3.589-0.897-7.351-0.82-11.035-0.476c-6.097,0.569-12.31,1.95-17.519,5.072c2.353-8.673,5.379-17.167,9.039-25.389  c0.333-0.748,0.679-1.489,1.022-2.232c5.66,3.014,11.319,6.027,16.978,9.041c3.776,2.011,7.67,4.059,11.925,4.515  c4.255,0.456,9.013-1.056,11.185-4.748c1.877-3.192,1.396-7.437-0.671-10.503c-2.067-3.066-5.495-5.03-9.083-5.927  c-3.588-0.898-7.351-0.82-11.035-0.476c-6.289,0.587-12.703,2.036-18.009,5.371c4.34-8.997,9.431-17.628,15.21-25.773  c5.851,2.834,11.702,5.666,17.553,8.5c3.85,1.864,7.821,3.761,12.09,4.054c4.27,0.292,8.966-1.4,10.995-5.173  c1.754-3.261,1.11-7.484-1.073-10.469c-2.183-2.984-5.684-4.815-9.304-5.574c-3.62-0.759-7.377-0.537-11.046-0.053  c-5.874,0.777-11.829,2.313-16.817,5.418c4.315-5.796,8.976-11.333,13.973-16.556c1.479-1.546,2.996-3.054,4.532-4.542  c6.114,2.715,12.227,5.431,18.341,8.147c3.909,1.737,7.94,3.503,12.218,3.654c4.277,0.152,8.915-1.694,10.82-5.531  c1.645-3.317,0.863-7.516-1.417-10.427c-2.28-2.911-5.84-4.626-9.482-5.266c-3.643-0.64-7.391-0.295-11.042,0.311  c-5.217,0.865-10.475,2.341-15.018,4.969c5.387-4.86,11.084-9.373,17.057-13.502c6.502-0.51,13.004-1.021,19.506-1.531  c4.267-0.335,8.655-0.702,12.492-2.604c3.837-1.903,7.042-5.733,6.892-10.011c-0.13-3.699-2.816-7.016-6.208-8.489  c-3.392-1.473-7.34-1.285-10.852-0.113c-3.512,1.172-6.646,3.259-9.572,5.529c-5.392,4.182-10.368,9.289-12.924,15.574  c-0.021,0.012-0.041,0.02-0.061,0.034c-6.365,4.383-12.419,9.203-18.124,14.405c2.564-4.87,3.772-10.485,4.317-16.008  c0.363-3.684,0.461-7.447-0.417-11.04c-0.878-3.594-2.823-7.033-5.877-9.117c-3.055-2.084-7.295-2.588-10.496-0.728  c-3.703,2.153-5.239,6.904-4.806,11.162c0.433,4.258,2.46,8.165,4.45,11.952c3.03,5.768,6.061,11.535,9.092,17.303  c-6.792,6.572-13.047,13.698-18.699,21.279c1.516-5.592,1.319-11.65,0.432-17.425c-0.562-3.657-1.401-7.325-3.144-10.587  c-1.742-3.262-4.481-6.11-7.958-7.369c-3.477-1.26-7.712-0.695-10.352,1.902c-3.054,3.004-3.364,7.985-1.888,12.001  c1.476,4.017,4.41,7.296,7.278,10.469c4.367,4.83,8.733,9.661,13.099,14.491c-0.172,0.243-0.349,0.482-0.52,0.725  c-5.599,7.99-10.541,16.432-14.78,25.211c0.885-6.431-0.62-13.076-2.901-19.201c-1.291-3.466-2.855-6.887-5.222-9.727  c-2.368-2.84-5.627-5.073-9.288-5.602c-3.661-0.529-7.696,0.882-9.756,3.959c-2.384,3.559-1.679,8.499,0.581,12.132  c2.259,3.632,5.797,6.249,9.249,8.774c5.424,3.968,10.849,7.937,16.273,11.906c-0.058,0.123-0.113,0.248-0.17,0.371l-0.189,0.028  c0.047,0.025,0.094,0.05,0.141,0.075c-3.982,8.611-7.286,17.532-9.849,26.673c-1.541-5.624-4.774-10.796-8.464-15.379  c-2.364-2.936-4.976-5.74-8.179-7.726c-3.203-1.986-7.073-3.1-10.783-2.438c-3.71,0.662-7.157,3.316-8.16,6.949  c-1.16,4.203,1.11,8.75,4.464,11.536c3.353,2.787,7.616,4.181,11.766,5.516c5.895,1.895,11.79,3.791,17.684,5.686  c0.166,0.089,0.332,0.177,0.498,0.265c-2.556,10.14-4.191,20.5-4.842,30.937c-0.069,1.102,1.64,1.421,1.709,0.304  c0.64-10.26,2.233-20.438,4.714-30.399c5.369,2.859,10.737,5.718,16.106,8.577c3.776,2.01,7.67,4.059,11.925,4.515  C1102.823,227.113,1107.581,225.602,1109.752,221.91z"/><path fill="#326AB3" d="M1123.363,386.828c-7.553-1.246-18.883-4.151-34.783-14.723c-9.731-6.521-23.279-15.477-34.468-32.236  c-0.483-0.724-1.344-1.992-2.349-3.722c-0.057-0.079-0.121-0.172-0.163-0.258c-0.108-0.143-0.206-0.308-0.321-0.465  c-0.353-0.574-0.711-1.199-1.146-1.822c-7.47-12.984-20.891-41.592-8.315-66.944c0.699-1.468,9.991-19.849,21.057-19.649  c13.823,0.383,20.693,29.352,26.867,27.72c3.123-0.843,2.237-8.222,4.459-17.162c4.796-20.119,23.65-43.225,42.702-43.031  c9.026,0.01,18.416,5.331,22.613,13.602c6.987,13.357-8.184,31.707-6.524,32.611c2.468,1.205,20.455-40.173,46.844-42.803  c9.261-0.882,20.331,2.944,23.195,9.854c4.177,10.138-11.309,22.71-7.801,26.656c3.719,4.182,20.221-10.417,44.324-9.847  c6.11,0.186,20.489,0.551,27.199,10.2c5.907,8.301,4.661,20.825-1.94,29.085c-6.139,7.598-15.265,9.617-17.782,10.099  c-16.302,3.389-23.164-7.392-49.72-10.113c-9.257-0.979-19.71-0.835-20.798,2.058c-0.654,2.171,4.621,3.908,8.811,10.536  c0.101,0.129,0.252,0.322,0.396,0.624c1.25,2.038,5.657,9.323,3.276,17.242c-0.05,0.343-2.829,8.895-9.666,10.809  c-3.513,1.047-6.667-0.167-8.066-0.647c-13.855-5.004-32.953-7.123-34.054-4.949c-1.334,2.462,21.102,10.326,19.804,19.284  c-1.09,7.442-17.904,11.43-20.076,11.939c-18.111,4.168-34.218-2.322-34.651-1.07c-0.323,1.074,13.898,3.019,22.664,13.665  c4.116,4.929,9.261,14.32,5.413,19.951C1145.716,390.29,1129.981,387.869,1123.363,386.828z"/><path fill="#FFF" d="M1141.613,338.216c0.406-3.175-2.483-5.26-5.205-6.329c-3.432-1.348-7.25-1.798-11.038-1.863  c-7.967-0.135-16.253,1.544-23.986-0.271c-3.908-0.918-7.513-2.717-9.948-5.697c11.492-5.653,22.373-12.553,33.072-19.521  c4.004-2.607,8.012-5.235,12.05-7.824c12.67-0.749,21.819,8.953,34.004,10.103c3.242,0.306,6.54-0.071,9.645-1.35  c0.523-0.215,0.176-0.934-0.345-0.72c-5.95,2.451-12.307,1.187-17.806-0.863c-5.443-2.03-10.38-5.007-15.979-6.73  c-2.635-0.811-5.392-1.281-8.221-1.264c10.921-6.964,22.095-13.58,34.111-18.523c14.552-5.984,30.482-9.618,45.83-7.843  c1.922,0.23,3.824,0.539,5.69,0.936c0.534,0.098,0.847-0.672,0.322-0.792c-14.522-3.02-29.993-0.826-44.407,4.065  c-2.456,0.83-4.869,1.761-7.262,2.737c0.059-0.077,0.102-0.168,0.088-0.283c-0.868-7.092,5.585-12.644,11.23-16.652  c3.087-2.191,6.29-4.285,9.001-6.911c2.253-2.18,4.375-4.809,4.583-7.857c0.035-0.522-0.823-0.559-0.859-0.035  c-0.241,3.563-3.274,6.568-6.032,8.887c-3.003,2.524-6.37,4.602-9.497,6.977c-5.138,3.904-10.063,9.391-9.283,15.768  c0.025,0.206,0.183,0.277,0.352,0.284c-13.468,5.547-25.993,13.183-38.191,21.071c-6.762,4.372-13.491,8.827-20.326,13.104  c-3.974-7.757-4.362-17.391-1.296-25.964c1.674-4.683,4.487-8.681,7.965-12.446c3.775-4.087,7.99-7.938,10.748-12.719  c2.723-4.72,3.815-10.516,0.98-15.041c-0.27-0.431-1.065-0.056-0.792,0.38c2.855,4.558,1.539,10.36-1.353,15.011  c-2.966,4.769-7.302,8.607-11.076,12.812c-3.265,3.639-5.826,7.578-7.378,12.052c-1.442,4.157-2.065,8.494-1.948,12.756  c0.13,4.766,1.232,9.453,3.393,13.634c-8.334,5.189-16.839,10.091-25.807,14.17c-6.216,2.832-12.689,5.249-19.286,7.036  c6.247-12.181-0.465-24.976,0.561-37.364c0.3-3.625,1.279-7.227,3.326-10.459c0.292-0.46-0.403-0.895-0.698-0.429  c-7.526,11.881-1.032,25.108-1.42,37.385c-0.117,3.71-0.867,7.411-2.678,10.851c-0.054,0.103-0.04,0.187-0.014,0.262  c-5.003,1.306-10.071,2.252-15.158,2.678c0.114,0.157,0.213,0.322,0.321,0.465c0.042,0.086,0.106,0.179,0.163,0.258  c8.693-0.768,17.387-2.954,25.748-6.04c4.478-1.656,8.839-3.567,13.119-5.644c4.031,5.091,11.062,6.765,17.75,6.921  c7.764,0.179,15.743-1.381,23.353,0.049c3.509,0.66,9.579,2.389,9.022,6.749C1140.689,338.705,1141.547,338.739,1141.613,338.216z"/><path fill="#326AB3" d="M331.003,386.599c-12.644-7.139-23.791-16.85-32.504-28.476c-4.085-5.452-7.966-11.376-10.441-17.78  l0.533,0.35c1.779,0.37,14.043,2.749,21.155-4.412c5.782-5.822,5.74-15.516,5.706-23.266c-0.012-2.731-0.223-5.012-0.423-6.63  c-2.077,2.777-5.421,6.585-10.423,9.852c-3.959,2.585-6.035,2.924-8.622,4.678c-3.342,2.266-7.133,6.628-9.137,15.835  c-1.879-6.602-1.647-13.438-1.007-20.225c0.637-6.74,1.678-13.532,1.12-20.316c-0.426-5.183-1.961-9.962-4.719-14.218  c3.267,0.585,13.947,1.932,20.393-4.559c5.781-5.822,5.739-15.516,5.706-23.265c-0.011-2.731-0.223-5.012-0.423-6.63  c-2.077,2.777-5.421,6.586-10.422,9.852c-3.959,2.585-6.036,2.923-8.622,4.677c-3.415,2.315-7.299,6.816-9.267,16.441  c-4.838-5.622-10.929-10.379-16.861-14.763c-2.922-2.16-5.962-4.133-9.011-6.091c4.169,0.586,13.4,1.095,19.202-4.749  c5.782-5.822,5.739-15.516,5.706-23.265c-0.012-2.731-0.223-5.012-0.423-6.63c-2.077,2.777-5.421,6.586-10.423,9.852  c-3.958,2.585-6.036,2.923-8.622,4.677c-3.539,2.4-7.583,7.148-9.474,17.517c-1.565-1.018-3.12-2.051-4.651-3.124  c-6.661-4.666-12.299-10.544-13.874-18.755l1.112,0.728c1.778,0.371,14.043,2.75,21.155-4.412c5.781-5.822,5.74-15.516,5.706-23.265  c-0.012-2.732-0.223-5.013-0.423-6.63c-2.077,2.777-5.421,6.586-10.423,9.852c-3.959,2.585-6.035,2.924-8.622,4.678  c-3.257,2.208-6.942,6.407-8.982,15.144c-0.327-5.855,0.926-11.748,2.517-17.435l2.05-0.644c1.471-1.186,11.469-9.478,10.4-19.917  c-0.87-8.486-8.691-14.843-14.944-19.925c-2.204-1.791-4.177-3.125-5.61-4.031c0.863,3.501,1.721,8.7,1.05,14.875  c-0.531,4.887-1.629,6.78-1.924,10.016c-0.404,4.438,0.754,10.838,7.886,19.222c-1.56,5.598-2.78,11.336-2.606,17.145  c0.177,5.922,2.08,11.377,5.628,15.963c-3.497-2.37-10.229-5.938-16.922-3.862c-7.259,2.251-11.435,10.198-14.774,16.551  c-1.177,2.239-1.995,4.196-2.534,5.607c2.905-1.369,7.295-3.032,12.805-3.531c4.361-0.394,6.207,0.231,9.085-0.08  c4.039-0.436,9.584-2.66,15.825-10.81l-0.121-0.219c4.504,4.222,9.933,7.359,15.106,10.673c3.859,2.472,7.604,5.12,11.225,7.927  l-0.31-0.161c-1.673-0.179-13.194-1.25-19.094,6c-4.796,5.894-3.872,14.824-3.133,21.963c0.26,2.517,0.664,4.599,0.996,6.072  c1.66-2.749,4.394-6.565,8.705-10.032c3.412-2.744,5.295-3.246,7.52-5.099c3.072-2.56,6.399-7.375,7.153-17.298  c2.249,1.801,4.449,3.663,6.59,5.594c2.195,1.98,4.252,4.042,6.041,6.266c-0.017,0.097-0.034,0.191-0.051,0.288l0.564,0.369  c2.651,3.449,4.646,7.299,5.499,11.853c0.851,4.543,0.741,9.176,0.365,13.782l-1.638-1.024c-1.654-0.309-13.057-2.272-19.503,4.498  c-5.239,5.504-5.011,14.479-4.828,21.654c0.065,2.529,0.304,4.637,0.521,6.131c1.869-2.612,4.891-6.204,9.458-9.326  c3.615-2.471,5.531-2.825,7.892-4.5c2.756-1.955,5.819-5.502,7.621-12.487c-0.074,0.706-0.149,1.411-0.222,2.113  c-0.697,6.722-1.357,13.584-0.072,20.28c0.354,1.847,0.857,3.653,1.47,5.422c-0.005,0.028-0.01,0.054-0.015,0.082l0.054,0.035  c1.972,5.639,5.104,10.893,8.455,15.79c9.172,13.405,21.422,24.572,35.56,32.554C331.09,387.986,331.657,386.968,331.003,386.599z"/><path fill="#85AEE6" d="M315.722,361.723c3.819,5.682,5.478,13.373,5.478,13.373s6.611,18.299,7.477,36.122  c0.261,6.308,0.75,15.954-2.962,27.485c-0.431,1.202-0.864,2.404-1.296,3.607c-0.453,1.186-0.95,2.339-1.55,3.449  c-0.409,0.857-0.817,1.712-1.268,2.535c-0.212,0.461-0.426,0.88-0.68,1.306c-7.608,14.088-18.587,22.396-22.887,25.445  c-4.182,2.847-19.441,12.692-39.349,12.519c-12.318-0.123-28.903-3.94-29.351-11.842c0-1.529,0.503-3.005-0.335-4.727  c-1.539-3.49-6.105-3.55-12.108-4.222c-11.118-1.219-16.689-1.746-19.302-4.664c-1.251-1.308-2.741-5.268-5.727-13.087  c-2.08-5.425-1.982-5.824-2.86-6.594c-4.486-3.674-11.317,3.541-21.145,3.04c-7.532-0.443-15.328-5.303-17.55-12.472  c-1.24-4.246,0.389-6.001-0.998-14.322c-0.993-5.877-1.567-8.893-3.267-11.268c-6.638-9.227-24.178,1.081-28.951-7.066  c-2.352-4.03-0.592-10.815,1.079-17.302c1.798-6.61,3.564-8.007,3.995-10.737c2.651-15.608-46.918-24.875-45.061-32.059  c1.44-5.461,34.427-13.321,56.135-9.644c3.352,0.636,9.85,2.045,16.438-1.789c7.628-4.359,7.723-11.273,13.283-13.116  c2.818-0.859,4.782,0.223,22.162,11.258c5.528,3.551,9.351,6.033,12.182,4.169c2.78-1.797,2.475-6.429,6.477-8.902  c0.61-0.449,2.046-1.185,4.633-1.198c8.578-0.225,17.735,7.372,22.137,11.201c8.838,7.613,12.632,12.294,15.024,10.786  c2.322-1.595,0.282-7.027,3.948-10.809c2.653-2.619,6.713-2.831,9.267-2.396c3.612,0.651,5.524,3.33,10.361,11.889  c4.979,8.774,5.439,10.322,8.26,14.852c4.728,7.894,9.06,15.053,12.825,13.747c3.402-1.183,2.882-7.867,8.629-11.936  c0.241-0.183,4.662-3.214,9.267-2.396C311.194,356.488,313.811,358.862,315.722,361.723z"/><path fill="#FFF" d="M302.027,383.605c4.72,3.713,2.822,10.971,2.465,16.393c-0.34,5.156-0.261,10.313,0.236,15.398  c0.948,9.695,3.479,19.072,7.338,27.789c-0.036-0.016-0.067-0.035-0.103-0.051c-9.804-4.848-20.117-8.843-30.165-12.965  c-10.358-4.249-20.681-8.725-30.265-14.496c-7.99-4.827-14.963-10.777-21.73-17.046c-0.005-0.003-0.008-0.007-0.012-0.01  c-1.53-10.611,1.179-21.387,0.567-32.05c-0.535-9.342-5.027-19.28-14.825-20.938c-0.872-0.147-1.078,1.265-0.21,1.412  c10.36,1.754,13.762,13.196,13.728,22.72c-0.032,9.155-1.775,18.315-0.825,27.392c-0.011-0.011-0.023-0.021-0.035-0.031  c-0.794-0.745-1.589-1.49-2.383-2.234c-6.473-6.119-13.116-12.147-21.053-16.279c-5.478-2.895-11.22-5.261-17.019-7.417  c-2.006-9.806-6.935-19.152-14.339-25.529c-0.66-0.57-1.532,0.592-0.874,1.159c6.899,5.943,11.589,14.648,13.626,23.767  c-0.301-0.12-0.599-0.207-0.901-0.328c-13.953-5.103-28.265-9.46-42.752-13.001c-1.265-0.301-2.553-0.617-3.836-0.894  c-0.837-0.194-1.395,1.131-0.559,1.325c13.764,3.106,27.31,7.175,40.571,11.758c7.044,2.439,14.027,5.05,20.803,8.159  c1.55,0.733,3.061,1.472,4.501,2.304c0.001,0.001,0.005,0.002,0.006,0.003c-3.614,4.113-9.142,4.352-13.999,4.882  c-4.279,0.467-8.492,1.522-12.546,3.218c-8.01,3.35-15.123,9.017-20.317,16.174c-0.548,0.755,0.531,1.573,1.081,0.815  c5.513-7.599,13.204-13.403,21.843-16.525c4.45-1.609,8.874-2.094,13.462-2.639c4.293-0.51,8.64-1.668,11.671-5.221  c0.012-0.014,0.003-0.028,0.014-0.043c0.003,0.002,0.006,0.003,0.009,0.005c4.614,2.606,8.855,5.659,12.929,9.204  c8.281,7.229,15.723,15.389,24.642,21.862c8.682,6.292,18.33,11.168,28.159,15.49c0.836,0.375,1.689,0.727,2.542,1.081  c0.003,0.002,0.006,0.002,0.009,0.003c-10.352,6.663-21.299,13.578-33.508,14.569c-2.824,0.229-5.64,0.088-8.377-0.435  c-2.649-0.506-5.246-1.338-7.994-1.358c-5.134-0.039-9.528,3.077-13.618,6.152c-0.744,0.559,0.068,1.652,0.81,1.094  c2.339-1.758,4.719-3.542,7.389-4.696c2.74-1.184,5.451-1.317,8.262-0.828c2.759,0.479,5.411,1.273,8.228,1.496  c2.536,0.2,5.119,0.084,7.674-0.277c11.711-1.654,22.162-8.324,32.17-14.767c0.169-0.109,0.234-0.25,0.269-0.392  c0.007,0.002,0.014,0.005,0.021,0.008c12.731,5.419,25.874,10.202,38.175,16.461c0.036,0.019,0.076,0.04,0.114,0.06  c0.098,0.079,0.187,0.148,0.308,0.159c0.013,0.008,0.028,0.016,0.041,0.022c2.546,1.3,5.056,2.648,7.479,4.111  c0.254-0.426,0.468-0.846,0.68-1.306c-2.484-1.472-5.015-2.836-7.582-4.154c-0.006-0.003-0.012-0.006-0.019-0.009  c-4.523-9.715-7.286-20.307-8.086-31.259c-0.407-5.582-0.259-11.193,0.307-16.825c0.492-4.914,0.734-10.413-3.32-13.602  C302.216,381.908,301.341,383.067,302.027,383.605z"/><ellipse cx="682" cy="869.137" fill="#EBECFA" rx="632.68" ry="50.863"/><rect width="761.239" height="480.885" x="301.791" y="182.372" fill="#FFF"/><path fill="#BFC3D9" d="M1067.229,169.436H303.433c-6.281,0-11.377,5.097-11.377,11.377v501.615c0,6.281,5.096,11.377,11.377,11.377  h763.796c6.28,0,11.376-5.096,11.376-11.377V180.813C1078.605,174.533,1073.509,169.436,1067.229,169.436z M1058.787,626.777  c0,6.529-5.403,11.836-12.065,11.836H319.342c-6.664,0-12.066-5.306-12.066-11.836V196.101c0-6.54,5.402-11.837,12.066-11.837  h727.379c6.663,0,12.065,5.297,12.065,11.837V626.777z"/><path fill="#FFF" d="M669.233,666.207c0-10.161,8.237-18.4,18.397-18.4c10.163,0,18.4,8.239,18.4,18.4  c0,10.161-8.237,18.4-18.4,18.4C677.47,684.607,669.233,676.368,669.233,666.207z"/><path fill="#CCC" d="M698.106,651.107c2.07,2.974,3.301,6.576,3.301,10.477c0,10.159-8.239,18.398-18.4,18.398  c-3.9,0-7.501-1.232-10.477-3.3c3.322,4.781,8.839,7.925,15.1,7.925c10.163,0,18.4-8.239,18.4-18.4  C706.029,659.943,702.887,654.429,698.106,651.107z"/><path fill="#A9AEC9" d="M920.599,850.195h-98.021c-37.717-2.897-83.713-4.599-133.299-4.599c-49.584,0-95.581,1.702-133.298,4.599  H457.96c-0.643,0.736-0.965,1.517-0.965,2.3v18.4c0,0.781,0.322,1.562,0.965,2.299c10.717,12.924,110.209,22.998,231.319,22.998  c121.11,0,220.603-10.074,231.32-22.998c0.643-0.737,0.966-1.518,0.966-2.299v-18.4  C921.565,851.712,921.242,850.931,920.599,850.195z"/><path fill="#BFC3D9" d="M921.565,852.495c0,3.265-5.612,6.347-15.823,9.2c0,0,0,0-0.047,0c-16.789,4.691-45.951,8.693-83.117,11.499  c-37.717,2.898-83.713,4.601-133.299,4.601c-49.584,0-95.581-1.702-133.298-4.601c-37.167-2.806-66.328-6.808-83.118-11.499  c-0.045,0-0.045,0-0.045,0c-10.213-2.853-15.823-5.935-15.823-9.2c0-0.783,0.322-1.564,0.965-2.3  c10.717-12.925,110.209-22.997,231.319-22.997c121.11,0,220.603,10.072,231.32,22.997  C921.242,850.931,921.565,851.712,921.565,852.495z"/><polygon fill="#BFC3D9" points="770.425 845.595 600.236 845.595 625.259 708.11 625.259 708.064 627.834 693.805 747.426 693.805"/><path fill="#A9AEC9" d="M770.425,845.595h-20.242c0,0-9.641-83.052-33.134-110.214c-30.956-35.693-91.791-27.271-91.791-27.271  v-0.047l2.575-14.259h119.593L770.425,845.595z"/><path fill="#DBE6FF" d="M920.744,228.124h-584.72c-6.183,0-11.195-5.012-11.195-11.195l0,0c0-6.183,5.012-11.195,11.195-11.195  h584.72c6.183,0,11.195,5.012,11.195,11.195l0,0C931.938,223.112,926.926,228.124,920.744,228.124z"/><circle cx="955.22" cy="217.659" r="10.789" fill="#DBE6FF"/><circle cx="986.127" cy="217.659" r="10.789" fill="#DBE6FF"/><circle cx="1017.034" cy="217.659" r="10.789" fill="#DBE6FF"/><circle cx="424.527" cy="338.286" r="76.897" fill="#DBE6FF" transform="rotate(-45.001 424.525 338.293)"/><circle cx="423.382" cy="316.535" r="29.852" fill="#FFF" transform="rotate(-48.502 423.361 316.517)"/><path fill="#FFF" d="M450.762,346.628c-2.403-1.877-5.761-1.811-8.123,0.116c-5.138,4.192-11.707,6.718-18.871,6.718  c-6.931,0-13.307-2.36-18.364-6.329c-2.408-1.889-5.821-1.851-8.144,0.142c-6.022,5.164-9.69,12.611-9.69,22.291v0.873  c0,5.006,4.058,9.064,9.064,9.064h55.785c5.006,0,9.064-4.058,9.064-9.064v-0.873C461.484,359.472,457.387,351.804,450.762,346.628z  "/><path fill="#FFF" d="M636.761,336.738h-71.014c-4.269,0-7.73-3.461-7.73-7.73v-39.485c0-4.269,3.461-7.73,7.73-7.73h71.014  c4.269,0,7.73,3.461,7.73,7.73v39.485C644.491,333.277,641.03,336.738,636.761,336.738z"/><path fill="#DBE6FF" d="M641.021,337.799h-79.533c-2.478,0-4.494-2.09-4.494-4.66v-47.748c0-2.569,2.016-4.66,4.494-4.66h79.533  c2.478,0,4.494,2.091,4.494,4.66v47.748C645.515,335.709,643.499,337.799,641.021,337.799z M561.488,282.855  c-1.349,0-2.446,1.138-2.446,2.537v47.748c0,1.399,1.097,2.537,2.446,2.537h79.533c1.349,0,2.447-1.138,2.447-2.537v-47.748  c0-1.399-1.097-2.537-2.447-2.537H561.488z"/><path fill="#DBE6FF" d="M569.491,326.066l15.066-21.479c0.804-1.147,2.467-1.104,3.215,0.083l12.833,20.351  c0.801,1.27,2.615,1.21,3.336-0.112l2.891-5.303c0.748-1.372,2.654-1.372,3.401,0l2.455,4.504c0.809,1.483,2.915,1.332,3.518-0.253  l6.747-17.734c0.668-1.755,3.083-1.694,3.667,0.093l6.669,20.392c0.43,1.314-0.512,2.676-1.85,2.676h-60.369  C569.474,329.283,568.552,327.405,569.491,326.066z"/><path fill="#DBE6FF" d="M598.89,297.452c0-3.262,2.55-5.906,5.696-5.906c3.146,0,5.696,2.644,5.696,5.906  c0,3.262-2.55,5.906-5.696,5.906C601.44,303.358,598.89,300.714,598.89,297.452z"/><path fill="#DBE6FF" d="M586.821,294.918c-0.106,0-0.209,0.011-0.309,0.031c0.008-0.08,0.012-0.161,0.012-0.243  c0-1.3-1.016-2.353-2.27-2.353c-1.07,0-1.966,0.767-2.206,1.8c-0.24-0.231-0.56-0.372-0.913-0.372c-0.493,0-0.923,0.275-1.157,0.685  c-0.225-0.101-0.473-0.156-0.734-0.156c-1.026,0-1.857,0.862-1.857,1.926c0,1.064,0.831,1.926,1.857,1.926  c0.435,0,0.836-0.155,1.152-0.415c0.61,0.528,1.623,0.874,2.771,0.874c1.075,0,2.033-0.303,2.651-0.776  c0.274,0.232,0.623,0.371,1.004,0.371c0.878,0,1.59-0.738,1.59-1.648C588.41,295.656,587.699,294.918,586.821,294.918z"/><path fill="#DBE6FF" d="M626.381,294.918c-0.106,0-0.209,0.011-0.31,0.031c0.008-0.08,0.012-0.161,0.012-0.243  c0-1.3-1.016-2.353-2.27-2.353c-1.069,0-1.966,0.767-2.206,1.8c-0.24-0.231-0.561-0.372-0.913-0.372  c-0.493,0-0.923,0.275-1.157,0.685c-0.225-0.101-0.473-0.156-0.734-0.156c-1.026,0-1.857,0.862-1.857,1.926  c0,1.064,0.832,1.926,1.857,1.926c0.435,0,0.835-0.155,1.152-0.415c0.61,0.528,1.623,0.874,2.771,0.874  c1.075,0,2.033-0.303,2.651-0.776c0.274,0.232,0.623,0.371,1.004,0.371c0.878,0,1.589-0.738,1.589-1.648  C627.971,295.656,627.259,294.918,626.381,294.918z"/><path fill="#DBE6FF" d="M644.04,351.752h-84.979c-0.941,0-1.703-0.763-1.703-1.704l0,0c0-0.941,0.763-1.704,1.703-1.704h84.979  c0.941,0,1.704,0.763,1.704,1.704l0,0C645.744,350.989,644.981,351.752,644.04,351.752z"/><path fill="#DBE6FF" d="M582.507,361.243h-23.446c-0.941,0-1.703-0.763-1.703-1.704l0,0c0-0.941,0.763-1.704,1.703-1.704h23.446  c0.941,0,1.703,0.763,1.703,1.704l0,0C584.211,360.48,583.448,361.243,582.507,361.243z"/><path fill="#DBE6FF" d="M643.905,361.243h-52.638c-0.941,0-1.704-0.763-1.704-1.704l0,0c0-0.941,0.763-1.703,1.704-1.703h52.638  c0.941,0,1.704,0.763,1.704,1.703l0,0C645.609,360.48,644.846,361.243,643.905,361.243z"/><path fill="#FFF" d="M753.209,336.738h-71.014c-4.269,0-7.73-3.461-7.73-7.73v-39.485c0-4.269,3.461-7.73,7.73-7.73h71.014  c4.269,0,7.73,3.461,7.73,7.73v39.485C760.939,333.277,757.478,336.738,753.209,336.738z"/><path fill="#DBE6FF" d="M757.469,337.799h-79.533c-2.478,0-4.494-2.09-4.494-4.66v-47.748c0-2.569,2.016-4.66,4.494-4.66h79.533  c2.478,0,4.494,2.091,4.494,4.66v47.748C761.963,335.709,759.947,337.799,757.469,337.799z M677.936,282.855  c-1.349,0-2.446,1.138-2.446,2.537v47.748c0,1.399,1.097,2.537,2.446,2.537h79.533c1.349,0,2.447-1.138,2.447-2.537v-47.748  c0-1.399-1.097-2.537-2.447-2.537H677.936z"/><path fill="#DBE6FF" d="M685.939,326.066l15.065-21.479c0.804-1.147,2.467-1.104,3.215,0.083l12.833,20.351  c0.801,1.27,2.615,1.21,3.336-0.112l2.891-5.303c0.748-1.372,2.654-1.372,3.401,0l2.455,4.504c0.809,1.483,2.915,1.332,3.518-0.253  l6.747-17.734c0.668-1.755,3.083-1.694,3.667,0.093l6.669,20.392c0.43,1.314-0.512,2.676-1.85,2.676h-60.369  C685.923,329.283,685,327.405,685.939,326.066z"/><path fill="#DBE6FF" d="M715.338,297.452c0-3.262,2.55-5.906,5.696-5.906c3.146,0,5.696,2.644,5.696,5.906  c0,3.262-2.55,5.906-5.696,5.906C717.889,303.358,715.338,300.714,715.338,297.452z"/><path fill="#DBE6FF" d="M703.269,294.918c-0.106,0-0.209,0.011-0.309,0.031c0.008-0.08,0.012-0.161,0.012-0.243  c0-1.3-1.016-2.353-2.27-2.353c-1.069,0-1.966,0.767-2.206,1.8c-0.24-0.231-0.561-0.372-0.913-0.372  c-0.493,0-0.923,0.275-1.157,0.685c-0.225-0.101-0.474-0.156-0.734-0.156c-1.026,0-1.857,0.862-1.857,1.926  c0,1.064,0.832,1.926,1.857,1.926c0.435,0,0.835-0.155,1.152-0.415c0.61,0.528,1.623,0.874,2.771,0.874  c1.075,0,2.033-0.303,2.651-0.776c0.274,0.232,0.623,0.371,1.004,0.371c0.878,0,1.59-0.738,1.59-1.648  C704.859,295.656,704.147,294.918,703.269,294.918z"/><path fill="#DBE6FF" d="M742.829,294.918c-0.106,0-0.209,0.011-0.309,0.031c0.008-0.08,0.012-0.161,0.012-0.243  c0-1.3-1.016-2.353-2.27-2.353c-1.07,0-1.966,0.767-2.206,1.8c-0.24-0.231-0.561-0.372-0.913-0.372  c-0.493,0-0.923,0.275-1.157,0.685c-0.225-0.101-0.473-0.156-0.734-0.156c-1.026,0-1.857,0.862-1.857,1.926  c0,1.064,0.832,1.926,1.857,1.926c0.435,0,0.836-0.155,1.152-0.415c0.61,0.528,1.623,0.874,2.771,0.874  c1.075,0,2.033-0.303,2.651-0.776c0.274,0.232,0.623,0.371,1.004,0.371c0.878,0,1.59-0.738,1.59-1.648  C744.419,295.656,743.707,294.918,742.829,294.918z"/><path fill="#DBE6FF" d="M760.488,351.752h-84.979c-0.941,0-1.703-0.763-1.703-1.704l0,0c0-0.941,0.763-1.704,1.703-1.704h84.979  c0.941,0,1.704,0.763,1.704,1.704l0,0C762.192,350.989,761.429,351.752,760.488,351.752z"/><path fill="#DBE6FF" d="M698.956,361.243h-23.446c-0.941,0-1.703-0.763-1.703-1.704l0,0c0-0.941,0.763-1.704,1.703-1.704h23.446  c0.941,0,1.704,0.763,1.704,1.704l0,0C700.659,360.48,699.896,361.243,698.956,361.243z"/><path fill="#DBE6FF" d="M760.353,361.243h-52.638c-0.941,0-1.704-0.763-1.704-1.704l0,0c0-0.941,0.763-1.703,1.704-1.703h52.638  c0.941,0,1.704,0.763,1.704,1.703l0,0C762.057,360.48,761.294,361.243,760.353,361.243z"/><path fill="#FFF" d="M869.658,336.738h-71.014c-4.269,0-7.73-3.461-7.73-7.73v-39.485c0-4.269,3.461-7.73,7.73-7.73h71.014  c4.269,0,7.73,3.461,7.73,7.73v39.485C877.387,333.277,873.927,336.738,869.658,336.738z"/><path fill="#DBE6FF" d="M873.917,337.799h-79.533c-2.478,0-4.494-2.09-4.494-4.66v-47.748c0-2.569,2.016-4.66,4.494-4.66h79.533  c2.478,0,4.494,2.091,4.494,4.66v47.748C878.411,335.709,876.395,337.799,873.917,337.799z M794.385,282.855  c-1.349,0-2.446,1.138-2.446,2.537v47.748c0,1.399,1.097,2.537,2.446,2.537h79.533c1.349,0,2.447-1.138,2.447-2.537v-47.748  c0-1.399-1.097-2.537-2.447-2.537H794.385z"/><path fill="#DBE6FF" d="M802.388,326.066l15.065-21.479c0.804-1.147,2.467-1.104,3.215,0.083l12.833,20.351  c0.801,1.27,2.615,1.21,3.336-0.112l2.891-5.303c0.748-1.372,2.654-1.372,3.401,0l2.455,4.504c0.809,1.483,2.915,1.332,3.518-0.253  l6.747-17.734c0.668-1.755,3.083-1.694,3.667,0.093l6.67,20.392c0.43,1.314-0.512,2.676-1.85,2.676h-60.369  C802.371,329.283,801.449,327.405,802.388,326.066z"/><path fill="#DBE6FF" d="M831.787,297.452c0-3.262,2.55-5.906,5.696-5.906c3.146,0,5.696,2.644,5.696,5.906  c0,3.262-2.55,5.906-5.696,5.906C834.337,303.358,831.787,300.714,831.787,297.452z"/><path fill="#DBE6FF" d="M819.717,294.918c-0.106,0-0.21,0.011-0.31,0.031c0.008-0.08,0.012-0.161,0.012-0.243  c0-1.3-1.016-2.353-2.27-2.353c-1.07,0-1.966,0.767-2.206,1.8c-0.24-0.231-0.56-0.372-0.913-0.372c-0.493,0-0.923,0.275-1.157,0.685  c-0.225-0.101-0.474-0.156-0.734-0.156c-1.026,0-1.857,0.862-1.857,1.926c0,1.064,0.832,1.926,1.857,1.926  c0.435,0,0.835-0.155,1.152-0.415c0.61,0.528,1.623,0.874,2.771,0.874c1.075,0,2.033-0.303,2.651-0.776  c0.274,0.232,0.623,0.371,1.004,0.371c0.878,0,1.589-0.738,1.589-1.648C821.307,295.656,820.595,294.918,819.717,294.918z"/><path fill="#DBE6FF" d="M859.278,294.918c-0.106,0-0.209,0.011-0.309,0.031c0.008-0.08,0.012-0.161,0.012-0.243  c0-1.3-1.016-2.353-2.269-2.353c-1.07,0-1.966,0.767-2.206,1.8c-0.24-0.231-0.561-0.372-0.913-0.372  c-0.493,0-0.923,0.275-1.157,0.685c-0.225-0.101-0.473-0.156-0.734-0.156c-1.026,0-1.857,0.862-1.857,1.926  c0,1.064,0.831,1.926,1.857,1.926c0.435,0,0.836-0.155,1.152-0.415c0.61,0.528,1.624,0.874,2.771,0.874  c1.075,0,2.033-0.303,2.651-0.776c0.274,0.232,0.623,0.371,1.004,0.371c0.878,0,1.59-0.738,1.59-1.648  C860.867,295.656,860.156,294.918,859.278,294.918z"/><path fill="#DBE6FF" d="M876.937,351.752h-84.979c-0.941,0-1.703-0.763-1.703-1.704l0,0c0-0.941,0.763-1.704,1.703-1.704h84.979  c0.941,0,1.704,0.763,1.704,1.704l0,0C878.64,350.989,877.878,351.752,876.937,351.752z"/><path fill="#DBE6FF" d="M815.404,361.243h-23.446c-0.941,0-1.703-0.763-1.703-1.704l0,0c0-0.941,0.763-1.704,1.703-1.704h23.446  c0.941,0,1.704,0.763,1.704,1.704l0,0C817.107,360.48,816.345,361.243,815.404,361.243z"/><path fill="#DBE6FF" d="M876.802,361.243h-52.638c-0.941,0-1.704-0.763-1.704-1.704l0,0c0-0.941,0.763-1.703,1.704-1.703h52.638  c0.941,0,1.704,0.763,1.704,1.703l0,0C878.505,360.48,877.743,361.243,876.802,361.243z"/><path fill="#70BDFF" d="M872.801,601.929H562.108c-3.45,0-6.246-2.797-6.246-6.246V407.644c0-3.45,2.797-6.246,6.246-6.246h310.693  c3.45,0,6.246,2.797,6.246,6.246v188.038C879.047,599.133,876.251,601.929,872.801,601.929z"/><path fill="none" stroke="#FFF" stroke-linecap="round" stroke-linejoin="round" stroke-miterlimit="10" stroke-width="3" d="  M563.325,588.368v-173.41c0-3.368,2.73-6.098,6.098-6.098h296.064c3.368,0,6.098,2.73,6.098,6.098v173.41  c0,3.368-2.73,6.098-6.098,6.098H569.423C566.055,594.466,563.325,591.736,563.325,588.368z"/><path fill="#FFF" d="M711.706,572.42c-2.419,0-4.859-0.122-7.251-0.363c-1.785-0.179-3.087-1.772-2.907-3.557  c0.179-1.784,1.771-3.088,3.557-2.906c4.485,0.451,9.112,0.436,13.601-0.042c1.785-0.2,3.384,1.101,3.575,2.885  c0.19,1.783-1.101,3.384-2.885,3.574C716.858,572.283,714.271,572.42,711.706,572.42z M690.805,569.164  c-0.329,0-0.663-0.05-0.993-0.156c-4.746-1.523-9.349-3.557-13.682-6.045c-1.556-0.893-2.093-2.879-1.199-4.433  c0.893-1.555,2.878-2.092,4.433-1.201c3.938,2.261,8.122,4.109,12.434,5.493c1.708,0.548,2.647,2.377,2.099,4.086  C693.454,568.286,692.179,569.164,690.805,569.164z M733.006,569.036c-1.366,0-2.637-0.869-3.085-2.237  c-0.559-1.705,0.369-3.54,2.074-4.099c4.305-1.412,8.476-3.286,12.398-5.57c1.547-0.903,3.538-0.378,4.441,1.173  c0.902,1.55,0.378,3.538-1.173,4.441c-4.314,2.512-8.904,4.574-13.641,6.128C733.684,568.984,733.342,569.036,733.006,569.036z   M666.175,555.034c-0.771,0-1.545-0.272-2.165-0.827c-3.72-3.328-7.099-7.053-10.045-11.072c-1.061-1.447-0.748-3.479,0.699-4.539  c1.448-1.059,3.481-0.748,4.539,0.698c2.681,3.656,5.755,7.044,9.138,10.071c1.337,1.197,1.452,3.25,0.256,4.587  C667.955,554.669,667.066,555.034,666.175,555.034z M757.545,554.758c-0.885,0-1.768-0.36-2.408-1.068  c-1.205-1.33-1.102-3.383,0.228-4.587c3.363-3.046,6.418-6.452,9.077-10.127c1.053-1.452,3.085-1.775,4.536-0.726  c1.453,1.052,1.778,3.083,0.726,4.536c-2.924,4.038-6.282,7.783-9.979,11.131C759.103,554.48,758.323,554.758,757.545,554.758z   M649.394,532.138c-1.239,0-2.422-0.712-2.963-1.915c-2.049-4.549-3.622-9.329-4.674-14.206c-0.378-1.753,0.736-3.482,2.49-3.86  c1.755-0.378,3.482,0.736,3.86,2.49c0.957,4.432,2.385,8.775,4.247,12.909c0.737,1.635,0.008,3.559-1.628,4.295  C650.293,532.046,649.841,532.138,649.394,532.138z M774.189,531.755c-0.44,0-0.886-0.089-1.314-0.279  c-1.64-0.727-2.38-2.645-1.654-4.286c1.837-4.145,3.239-8.498,4.167-12.937c0.367-1.755,2.091-2.879,3.844-2.514  c1.756,0.367,2.881,2.088,2.514,3.844c-1.022,4.885-2.566,9.676-4.587,14.238C776.623,531.035,775.436,531.755,774.189,531.755z   M643.396,504.391c-1.794,0-3.249-1.455-3.249-3.249v-0.281c0-5.007,0.521-10.01,1.548-14.867c0.371-1.756,2.092-2.879,3.849-2.506  c1.754,0.37,2.877,2.094,2.506,3.849c-0.933,4.417-1.407,8.967-1.407,13.524v0.281C646.644,502.936,645.189,504.391,643.396,504.391  z M780.016,503.969c-1.791,0-3.245-1.449-3.248-3.241c-0.009-4.558-0.492-9.106-1.434-13.519c-0.375-1.755,0.744-3.48,2.498-3.856  c1.765-0.372,3.481,0.745,3.855,2.498c1.036,4.855,1.567,9.856,1.577,14.864c0.003,1.794-1.448,3.251-3.242,3.254  C780.02,503.969,780.018,503.969,780.016,503.969z M649.277,476.336c-0.441,0-0.89-0.09-1.32-0.282  c-1.639-0.73-2.376-2.65-1.645-4.288c2.027-4.55,4.545-8.906,7.484-12.948c1.056-1.451,3.086-1.772,4.537-0.717  c1.45,1.055,1.772,3.087,0.717,4.537c-2.673,3.675-4.962,7.636-6.806,11.772C651.707,475.619,650.519,476.336,649.277,476.336z   M774.079,476.211c-1.241,0-2.425-0.715-2.965-1.92c-1.851-4.131-4.147-8.086-6.825-11.754c-1.058-1.449-0.741-3.48,0.708-4.539  c1.447-1.058,3.479-0.742,4.538,0.709c2.946,4.034,5.472,8.384,7.507,12.928c0.734,1.638,0.001,3.559-1.636,4.292  C774.975,476.12,774.523,476.211,774.079,476.211z M665.973,453.368c-0.888,0-1.771-0.362-2.413-1.073  c-1.201-1.332-1.095-3.386,0.237-4.587c3.708-3.344,7.773-6.306,12.083-8.803c1.551-0.901,3.538-0.369,4.439,1.182  c0.899,1.552,0.37,3.54-1.183,4.438c-3.918,2.27-7.616,4.964-10.989,8.006C667.526,453.091,666.748,453.368,665.973,453.368z   M757.341,453.28c-0.774,0-1.549-0.274-2.169-0.832c-3.379-3.036-7.082-5.722-11.008-7.987c-1.553-0.896-2.086-2.883-1.19-4.437  c0.895-1.554,2.88-2.088,4.436-1.19c4.316,2.489,8.388,5.444,12.102,8.781c1.334,1.199,1.445,3.253,0.245,4.587  C759.116,452.916,758.231,453.28,757.341,453.28z M690.54,439.143c-1.369,0-2.642-0.872-3.088-2.244  c-0.555-1.705,0.378-3.538,2.082-4.094c4.739-1.542,9.661-2.588,14.629-3.108c1.786-0.178,3.381,1.11,3.568,2.893  c0.186,1.784-1.109,3.381-2.893,3.568c-4.514,0.473-8.987,1.423-13.293,2.824C691.212,439.091,690.873,439.143,690.54,439.143z   M732.743,439.101c-0.331,0-0.667-0.051-1-0.159c-4.308-1.393-8.784-2.334-13.302-2.798c-1.784-0.184-3.083-1.778-2.899-3.563  c0.184-1.784,1.767-3.078,3.563-2.899c4.97,0.512,9.895,1.547,14.636,3.08c1.706,0.551,2.643,2.382,2.091,4.089  C735.388,438.226,734.114,439.101,732.743,439.101z"/><path fill="#FFF" d="M813.742,419.083c-41.239,19.925-74.271,51.548-103.263,86.157c-15.969-10.282-32.499-19.477-50.682-25.629  l-1.467,1.645c16.159,15.164,39.33,36.079,55.998,51.106c32.736-35.211,69.376-75.772,101.041-111.792L813.742,419.083z"/><path fill="#DBE6FF" d="M487.396,452.504H351.193c-1.478,0-2.677-1.198-2.677-2.677l0,0c0-1.478,1.198-2.677,2.677-2.677h136.202  c1.478,0,2.677,1.198,2.677,2.677l0,0C490.073,451.306,488.874,452.504,487.396,452.504z"/><path fill="#DBE6FF" d="M487.396,469.54h-80.959c-1.478,0-2.677-1.199-2.677-2.677l0,0c0-1.478,1.199-2.677,2.677-2.677h80.959  c1.478,0,2.677,1.199,2.677,2.677l0,0C490.073,468.341,488.874,469.54,487.396,469.54z"/><path fill="#DBE6FF" d="M394.35,469.296h-43.156c-1.478,0-2.677-1.199-2.677-2.677l0,0c0-1.478,1.198-2.677,2.677-2.677h43.156  c1.478,0,2.677,1.199,2.677,2.677l0,0C397.027,468.098,395.828,469.296,394.35,469.296z"/><path fill="#DBE6FF" d="M487.396,483.898H351.193c-1.478,0-2.677-1.198-2.677-2.677l0,0c0-1.479,1.198-2.677,2.677-2.677h136.202  c1.478,0,2.677,1.199,2.677,2.677l0,0C490.073,482.7,488.874,483.898,487.396,483.898z"/><path fill="#DBE6FF" d="M487.798,500.933h-81.763c-1.256,0-2.275-1.018-2.275-2.275v-0.805c0-1.256,1.018-2.275,2.275-2.275h81.763  c1.256,0,2.275,1.018,2.275,2.275v0.805C490.073,499.915,489.054,500.933,487.798,500.933z"/><path fill="#DBE6FF" d="M394.35,500.69h-43.156c-1.478,0-2.677-1.199-2.677-2.677l0,0c0-1.478,1.198-2.677,2.677-2.677h43.156  c1.478,0,2.677,1.199,2.677,2.677l0,0C397.027,499.491,395.828,500.69,394.35,500.69z"/><path fill="#DBE6FF" d="M487.396,515.292H351.193c-1.478,0-2.677-1.199-2.677-2.677l0,0c0-1.478,1.198-2.677,2.677-2.677h136.202  c1.478,0,2.677,1.199,2.677,2.677l0,0C490.073,514.093,488.874,515.292,487.396,515.292z"/><path fill="#DBE6FF" d="M487.396,532.327h-80.959c-1.478,0-2.677-1.199-2.677-2.677l0,0c0-1.478,1.199-2.677,2.677-2.677h80.959  c1.478,0,2.677,1.199,2.677,2.677l0,0C490.073,531.129,488.874,532.327,487.396,532.327z"/><path fill="#DBE6FF" d="M394.35,532.084h-43.156c-1.478,0-2.677-1.198-2.677-2.677l0,0c0-1.478,1.198-2.677,2.677-2.677h43.156  c1.478,0,2.677,1.198,2.677,2.677l0,0C397.027,530.885,395.828,532.084,394.35,532.084z"/><path fill="#DBE6FF" d="M387.681,577.82h-24.386c-1.725,0-3.123-1.398-3.123-3.123v-21.237c0-1.725,1.398-3.123,3.123-3.123h24.386  c1.725,0,3.123,1.398,3.123,3.123v21.237C390.804,576.422,389.406,577.82,387.681,577.82z"/><path fill="#DBE6FF" d="M430.839,577.82h-24.386c-1.725,0-3.123-1.398-3.123-3.123v-21.237c0-1.725,1.398-3.123,3.123-3.123h24.386  c1.725,0,3.123,1.398,3.123,3.123v21.237C433.962,576.422,432.564,577.82,430.839,577.82z"/><path fill="#DBE6FF" d="M473.996,577.82H449.61c-1.725,0-3.123-1.398-3.123-3.123v-21.237c0-1.725,1.398-3.123,3.123-3.123h24.386  c1.725,0,3.123,1.398,3.123,3.123v21.237C477.12,576.421,475.721,577.82,473.996,577.82z"/><path fill="#DBE6FF" d="M387.681,611.745h-24.386c-1.725,0-3.123-1.398-3.123-3.123v-21.237c0-1.725,1.398-3.123,3.123-3.123h24.386  c1.725,0,3.123,1.398,3.123,3.123v21.237C390.804,610.347,389.406,611.745,387.681,611.745z"/><path fill="#DBE6FF" d="M430.839,611.745h-24.386c-1.725,0-3.123-1.398-3.123-3.123v-21.237c0-1.725,1.398-3.123,3.123-3.123h24.386  c1.725,0,3.123,1.398,3.123,3.123v21.237C433.962,610.347,432.564,611.745,430.839,611.745z"/><path fill="#DBE6FF" d="M473.996,611.745H449.61c-1.725,0-3.123-1.398-3.123-3.123v-21.237c0-1.725,1.398-3.123,3.123-3.123h24.386  c1.725,0,3.123,1.398,3.123,3.123v21.237C477.12,610.346,475.721,611.745,473.996,611.745z"/><path fill="#DBE6FF" d="M951.695,352.789h-21.82c-1.725,0-3.123-1.398-3.123-3.123v-18.477c0-1.725,1.398-3.123,3.123-3.123h21.82  c1.725,0,3.123,1.398,3.123,3.123v18.477C954.818,351.391,953.42,352.789,951.695,352.789z"/><path fill="#DBE6FF" d="M991.237,352.789h-21.82c-1.725,0-3.123-1.398-3.123-3.123v-18.477c0-1.725,1.398-3.123,3.123-3.123h21.82  c1.725,0,3.123,1.398,3.123,3.123v18.477C994.36,351.391,992.962,352.789,991.237,352.789z"/><path fill="#DBE6FF" d="M1030.779,352.789h-21.82c-1.725,0-3.123-1.398-3.123-3.123v-18.477c0-1.725,1.398-3.123,3.123-3.123h21.82  c1.725,0,3.123,1.398,3.123,3.123v18.477C1033.903,351.391,1032.504,352.789,1030.779,352.789z"/><path fill="#DBE6FF" d="M951.695,383.307h-21.82c-1.725,0-3.123-1.398-3.123-3.123v-18.477c0-1.725,1.398-3.123,3.123-3.123h21.82  c1.725,0,3.123,1.398,3.123,3.123v18.477C954.818,381.909,953.42,383.307,951.695,383.307z"/><path fill="#DBE6FF" d="M991.237,383.307h-21.82c-1.725,0-3.123-1.398-3.123-3.123v-18.477c0-1.725,1.398-3.123,3.123-3.123h21.82  c1.725,0,3.123,1.398,3.123,3.123v18.477C994.36,381.909,992.962,383.307,991.237,383.307z"/><path fill="#DBE6FF" d="M1030.78,383.307h-21.82c-1.725,0-3.123-1.398-3.123-3.123v-18.477c0-1.725,1.398-3.123,3.123-3.123h21.82  c1.725,0,3.123,1.398,3.123,3.123v18.477C1033.903,381.909,1032.504,383.307,1030.78,383.307z"/><path fill="#DBE6FF" d="M1031.841,285.31H928.984c-1.139,0-2.062-0.763-2.062-1.704l0,0c0-0.941,0.923-1.704,2.062-1.704h102.857  c1.139,0,2.062,0.763,2.062,1.704l0,0C1033.903,284.547,1032.979,285.31,1031.841,285.31z"/><path fill="#DBE6FF" d="M957.362,294.801h-28.379c-1.139,0-2.062-0.763-2.062-1.704l0,0c0-0.941,0.923-1.704,2.062-1.704h28.379  c1.139,0,2.062,0.763,2.062,1.704l0,0C959.425,294.038,958.501,294.801,957.362,294.801z"/><path fill="#DBE6FF" d="M1031.677,294.801h-63.712c-1.139,0-2.062-0.763-2.062-1.704l0,0c0-0.941,0.923-1.703,2.062-1.703h63.712  c1.139,0,2.062,0.763,2.062,1.703l0,0C1033.739,294.038,1032.816,294.801,1031.677,294.801z"/><path fill="#DBE6FF" d="M1031.841,306.077H928.984c-1.139,0-2.062-0.763-2.062-1.704l0,0c0-0.941,0.923-1.704,2.062-1.704h102.857  c1.139,0,2.062,0.763,2.062,1.704l0,0C1033.903,305.314,1032.979,306.077,1031.841,306.077z"/><path fill="#DBE6FF" d="M957.362,315.568h-28.379c-1.139,0-2.062-0.763-2.062-1.704l0,0c0-0.941,0.923-1.704,2.062-1.704h28.379  c1.139,0,2.062,0.763,2.062,1.704l0,0C959.425,314.805,958.501,315.568,957.362,315.568z"/><path fill="#DBE6FF" d="M1031.677,315.568h-63.712c-1.139,0-2.062-0.763-2.062-1.704l0,0c0-0.941,0.923-1.703,2.062-1.703h63.712  c1.139,0,2.062,0.763,2.062,1.703l0,0C1033.739,314.805,1032.816,315.568,1031.677,315.568z"/><path fill="#464E8C" d="M1008.304,490.054c-1.5-0.948-3.435-0.603-5.188-0.324c-3.75,0.596-7.573,0.727-11.355,0.388  c-3.803-0.341-7.73-1.141-11.366,0.027c-3.981,1.278-6.925,4.766-8.644,8.577c-3.068,6.801-2.704,15.05,0.952,21.555  c3.656,6.504,10.975,11.469,18.38,12.384l17.579-27.426c1.273-3.154,1.887-6.572,1.793-9.97  C1010.4,493.306,1009.959,491.101,1008.304,490.054z"/><path fill="#F7C1CE" d="M1033.412,580.166c-2.705,14.499-3.145,28.834-0.119,42.93c0.06,0.297,0.119,0.606,0.19,0.902h-0.403  c0,0,3.631,4.686,8.567,12.068c6.669,9.979,15.722,24.87,21.394,39.715c3.204,8.366,5.328,16.72,5.34,24.16  c0.083,37.294-64.218,53.847-65.702,60.67c-1.483,6.823,10.525,18.689,7.262,26.84c-3.264,8.163-26.841-24.621-25.654-30.697  c1.186-6.087,10.679-7.713,10.679-7.713s32.987-30.199,28.775-46.621c-0.119-0.475-0.369-1.009-0.724-1.59  c-1.993-3.323-7.499-8.378-13.966-15.118c-6.467,13.966-15.188,27.008-26.841,34.993c-5.684,3.904-12.068,6.609-19.234,7.63  c-28.443,4.046-66.497-45.304-71.54-46.929c-5.042-1.638-19.579,19.721-21.951,16.161c-2.373-3.56,17.645-36.036,22.984-36.404  c5.34-0.368,9.196,8.377,9.196,8.377S935.34,689,952,682.948c1.317-0.474,2.444-1.293,3.429-2.408  c6.763-7.689,6.716-29.166,15.841-46.004c2.065-3.821,4.617-7.404,7.82-10.537h-0.119c0.131-1.887,0.189-3.738,0.143-5.565  c-0.167-9.659-2.694-18.487-7.405-26.544c0,0-27.564-5.15-40.107-19.139c-10.81-12.068-14.453-33.427-15.663-45.008  c-0.51-4.865-0.594-8.009-0.594-8.009c-6.823-3.501-12.293-19.627-0.534-23.518c10.49-3.477,15.675,11.117,10.122,20.148  c0,0,1.164,2.456,3.086,6.075c4.687,8.793,13.847,24.456,21.738,28.585c11.736,6.146,25.655-1.922,25.655-1.922l14.239-3.856  l1.72-17.027l0.238-2.338l0.047-0.439h12.234l1.223,9.089l1.222,9.149h6.016c0,0,28.3-11.285,29.167-24.325  c0.926-13.907-11.462-34.269-16.447-41.839c-1.246-1.898-2.028-2.99-2.028-2.99c-8.746,0.178-17.799-12.827-9.778-18.95  c6.301-4.817,17.644,3.263,16.386,13.053c0,0,1.377,0.925,3.62,2.599c10.584,7.843,40.581,32.073,38.279,53.016  C1068.618,550.869,1033.412,580.166,1033.412,580.166z"/><path fill="#464E8C" d="M1063.041,675.781l-32.133,20.113l-7.891,4.937c-1.993-3.323-7.499-8.378-13.966-15.118  c-6.467,13.966-15.188,27.008-26.841,34.993l-19.698-29.535l-7.084-10.631c6.763-7.689,6.716-29.166,15.841-46.004  c2.065-3.821,4.617-7.404,7.82-10.537h-0.119c0.047-0.807,0.095-1.602,0.119-2.397c0.048-1.068,0.048-2.124,0.024-3.168  l54.179,4.663c0.06,0.297,0.119,0.606,0.19,0.902h-0.403c0,0,3.631,4.686,8.567,12.068  C1048.315,646.045,1057.369,660.937,1063.041,675.781z"/><path fill="#39427D" d="M1030.908,695.894l-7.891,4.937c-1.993-3.323-7.499-8.378-13.966-15.118l12.995-25.999l-1.108,12.31  c-0.776,8.622,2.533,17.11,8.939,22.933L1030.908,695.894z"/><path fill="#39427D" d="M1011.827,627.713c0,0-2.776,8.921-31.053,16.019c-14.193,3.563-13.443,30.78-18.262,47.44l-7.084-10.631  c6.763-7.689,6.716-29.166,15.841-46.004c2.065-3.821,4.617-7.404,7.82-10.537h-0.119c0.047-0.807,0.095-1.602,0.119-2.397  L1011.827,627.713z"/><path fill="#326AB3" d="M1071.549,524.242c-0.819,7.405-4.129,14.998-8.484,22.131c-11.296,18.522-29.653,33.794-29.653,33.794  l-0.13,0.783c-1.982,12.59,4.129,29.499,7.938,42.967c0.866,3.097-1.567,6.17-4.782,5.956c-24.016-1.577-37.496,7.392-52.982,6.729  c-3.429-0.143-6.953-0.759-10.703-2.065c-2.219-0.771-3.596-3.014-3.251-5.328c1.78-11.925,7.238-28.715,2.207-37.318  c0,0-17.3-3.228-30.721-11.534c-3.525-2.172-6.788-4.699-9.386-7.606c-10.318-11.519-15.037-31.233-16.497-43.074  c-0.12-0.969,0.413-1.896,1.31-2.282l10.591-4.563c1.048-0.452,2.263-0.032,2.799,0.975c4.807,9.028,12.566,23.353,19.951,27.217  c11.736,6.146,25.655-1.922,25.655-1.922l14.239-3.856l16.683-1.566h6.016c0,0,28.3-11.285,29.167-24.325  c0.848-12.732-10.414-30.42-16.147-39.128c-0.799-1.214-0.485-2.837,0.704-3.672l6.717-4.716c0.959-0.674,2.243-0.655,3.172,0.059  C1047.563,480.819,1073.745,504.26,1071.549,524.242z"/><path fill="#23599E" d="M983.456,636.601c-3.429-0.143-6.953-0.759-10.703-2.065c-2.219-0.771-3.596-3.014-3.251-5.328  c1.78-11.925,7.238-28.715,2.207-37.318c0,0-17.3-3.228-30.721-11.534c16.621,4.725,30.274,6.147,42.64,2.86  C978.289,608.181,989.599,620.237,983.456,636.601z"/><path fill="#23599E" d="M1063.065,546.373c-11.296,18.522-29.653,33.794-29.653,33.794s-0.298-14.342-6.527-23.241l6.396,4.672  c4.199,3.733,10.511,2.428,14.684-1.335C1053.399,555.362,1057.693,550.87,1063.065,546.373z"/><path fill="#464E8C" d="M998.974,745.159c-7.322,0.328-14.848,4.795-18.525,12.296c-0.411,0.84-0.316,1.842,0.279,2.565  l24.892,30.253c0.944,1.148,2.723,1.138,3.635-0.035c6.669-8.571-7.74-22.517-0.232-34.417  C1004.081,754.605,999.199,750.64,998.974,745.159z"/><path fill="#464E8C" d="M904.946,671.33c-3.22-6.174-10.567-11.907-18.529-12.714c-1.653-0.168-3.232,0.733-3.95,2.232  l-16.184,33.814c-0.807,1.689,0.266,3.728,2.128,3.916c9.832,1,15.14-17.932,29.193-11.759  C896.619,681.825,900.072,673.848,904.946,671.33z"/><path fill="#F2AFBE" d="M1005.112,534.529c-0.914,0.357-1.934,0.605-3.05,0.701c-4.307,0.38-8.903-1.479-10.979-4.161l0.526-5.189  l1.293-0.439h10.988L1005.112,534.529z"/><path fill="#F7C1CE" d="M1006.339,500.077c0,0-1.038,2.892-8.343,3.634c-7.305,0.741-14.869-5.933-16.501,0  c-1.632,5.933,4.154,9.344,4.154,9.344s-6.972-2.67-7.565,0.89c-0.593,3.56,6.378,6.675,6.823,6.527  c0.445-0.148,12.903,16.167,21.432,11.272C1014.868,526.849,1012.347,514.39,1006.339,500.077z"/><path fill="#464E8C" d="M372.518,492.483c0,0-8.058-8.439-4.867-17.766c3.164-9.248,13.872-12.574,20.361-10.302  s26.608,4.462,20.28,27.824c-6.327,23.363,69.358,32.367,52.323,58.407c-17.035,26.04-80.553,55.973-81.04,24.58  C379.089,543.833,360.35,522.336,372.518,492.483z"/><path fill="#F7C1CE" d="M391.078,707.193c2.569,0.505,5.184,0.971,7.847,1.384c0,0,1.996,2.36,6.89,9.355  c4.906,6.982-3.316,27.899,3.388,28.597c6.691,0.684,10.761-35.471,10.38-41.951c-0.38-6.48-13.312-5.25-13.312-5.25  s-3.993-1.784-9.776-4.702c-16.436-8.262-47.353-25.632-42.202-36.832c3.515-7.638,40.969,5.483,53.966-18.266  c10.571-19.297-6.123-41.849-6.263-41.506l-18.02,1.058c0,0-15.539,0.912-19.044,1.118c-4.703,0.276-41.154,21.39-48.739,41.341  C303.534,674.842,331.257,695.57,391.078,707.193z"/><path fill="#464E8C" d="M390.984,708.982l3.449-9.169l2.572-6.826c-14.025-7.054-38.97-19.535-42.781-30.012  c-0.663-1.794-0.691-3.539,0.067-5.18c3.515-7.638,40.969,5.483,53.966-18.266c10.571-19.297-6.123-41.849-6.263-41.506  l-18.02,1.058c0,0-15.539,0.912-19.044,1.118c-4.703,0.276-41.154,21.39-48.739,41.341  C303.534,674.842,331.164,697.359,390.984,708.982z"/><path fill="#39427D" d="M351.733,621.502c0,0-18.316,18.116-19.86,28.734c-1.282,8.815,20.226,29.369,20.226,29.369  s17.438-17.084,17.017-17.505c-0.421-0.421,8.716-26.733,8.716-26.733L351.733,621.502z"/><path fill="#39427D" d="M350.896,677.586l43.537,22.226l2.572-6.826c-14.025-7.054-38.97-19.535-42.781-30.012l-0.062,0.003  L350.896,677.586z"/><path fill="#F7C1CE" d="M325.695,700.182c1.676,28.56,31.43,64.093,46.413,80.279c5.091,5.497,8.478,8.766,8.478,8.766  s3.349,4.3,5.433,10.679c2.071,6.38-6.163,29.614-1.275,31.037c4.876,1.41,16.904-25.762,19.764-35.071  c2.86-9.295-14.558-13.388-14.558-13.388s-1.229-2.367-3.128-6.22l0-0.012c-5.683-11.581-17.415-36.541-20.229-50.916  c-8.217-41.886,75.476-61.153,35.404-127.314l-37.064,2.176C364.931,600.199,323.702,666.24,325.695,700.182z"/><path fill="#F7C1CE" d="M357.229,565.825c0,0,6.835,31.404,7.703,34.374l37.064-2.176c0,0,0.309-11.821,2.451-24.295  c2.402-13.926,3.698-14.224,3.698-14.224s7.183-5.5,15.61-13.202c8.897-8.164,19.184-18.787,23.834-27.977  c11.863-23.448,11.127-61.947,11.127-61.947s16.627-12.122,9.539-16.821c-7.086-4.687-12.941,6.333-12.941,6.333  s0.065-9.441-2.703-9.13c-2.767,0.323-2.479,15.788-2.479,15.788s-7.969,22.067-16.117,34.942  c-6.121,9.661-15.856,20.623-22.887,28.07c-1.761,1.863-3.349,3.504-4.669,4.857c-2.372,2.418-5.971,3.137-9.106,1.847l-5.814-2.421  l-14.486,0.503l-15.876,5.257c-0.436,0.144-0.743,0.536-0.78,0.993L357.229,565.825z"/><polygon fill="#F7C1CE" points="377.053 520.343 388.138 519.957 391.535 519.842 391.189 501.579 390.979 490.616 378.582 492.739 378.018 502.89 377.566 511.091"/><path fill="#F2AFBE" d="M377.566,511.091c0,0,1.399,2.174,7.192,1.719c5.613-0.441,6.777,7.033,6.777,7.033l-0.346-18.263  c-5.665,0.041-11.769,0.154-11.769,0.154l-1.402,1.157L377.566,511.091z"/><path fill="#F7C1CE" d="M371.925,489.275c0,0,9.207-4.024,12.952-15.39c0,0,4.268,12.057,9.143,12.7c0,0,4.827-5.47,8.302-1.649  c3.476,3.821-3.975,11.38-3.975,11.38s-6.174,18.785-17.754,14.047C369.013,505.624,371.925,489.275,371.925,489.275z"/><path fill="#FF9C61" d="M357.229,565.825c0,0,6.835,31.404,7.703,34.374l37.064-2.176c0,0,0.309-11.821,2.451-24.295  c2.402-13.926,3.698-14.224,3.698-14.224s8.301-3.324,16.342-10.235c0.79-0.678,1.06-1.772,0.645-2.726l-2.359-5.373l-10.941-24.982  c-0.485-1.086-1.923-1.311-2.725-0.434c-3.711,4.081-7.736,4.798-13.23,4.705l-4.34-0.615c-3.89,5.154-8.597,5.962-14.485,0.503  l-16.595,5.495L357.229,565.825z"/><path fill="#464E8C" d="M325.695,700.182c1.676,28.56,33.206,69.239,48.188,85.427l11.109-7.18l3.651-2.357  c0,0-19.237-36.359-22.051-50.735c-8.217-41.886,75.476-61.153,35.404-127.314l-38.533,2.262  C363.462,600.285,323.702,666.24,325.695,700.182z"/><path fill="#F7C1CE" d="M355.268,607.739c6.283,5.538,27.542,6.508,27.072-1.515c-0.544-9.257-12.875-5.82-15.07-7.55  c-2.195-1.729,7.531-2.3,5.02-5.41c-2.498-3.099-15.532,4.404-15.532,4.404s-19.732-3.425-16.046-15.741  c1.119-3.731,5.182-7.722,9.002-10.795c3.891-3.127,7.515-5.308,7.515-5.308l3.227-39.983c0,0-11.884,9.169-23.041,21.441  c-8.529,9.356-16.642,20.521-18.727,30.786C313.514,603.452,341.888,608.511,355.268,607.739z"/><path fill="#FF9C61" d="M336.552,548.833l12.107,21.842c0.084,0.169,0.192,0.311,0.323,0.439c0.822,0.93,2.291,1.054,3.256,0.193  c2.262-1.979,4.211-3.988,5.109-4.945c0.35-0.367,0.536-0.575,0.536-0.575l3.824-40.352c-5.8,1.629-12.266,6.665-24.854,20.718  C336.19,546.884,336.068,547.969,336.552,548.833z"/><path fill="#EB8447" d="M348.982,571.114c0.822,0.93,2.291,1.054,3.256,0.193c2.262-1.979,4.211-3.988,5.109-4.945l-1.087-17.039  C352.476,558.471,355.135,567.151,348.982,571.114z"/><path fill="#EB8447" d="M395.17,598.424l6.825-0.401c0,0,0.309-11.821,2.451-24.295c2.402-13.926,3.698-14.224,3.698-14.224  s8.301-3.324,16.342-10.235c0.79-0.678,1.06-1.772,0.645-2.726l0.186,0.985c0,0-13.548,7.203-22.311,8.336  C400.741,574.652,391.211,583.726,395.17,598.424z"/><path fill="#39427D" d="M357.553,724.336c-0.47,15.794,22.169,43.009,27.44,54.093l3.651-2.357c0,0-19.237-36.359-22.051-50.735  c-8.217-41.886,75.476-61.153,35.404-127.314l-6.825,0.401c0,0,10.17,22.722,9.03,39.111  C402.228,665.904,358.737,684.557,357.553,724.336z"/><path fill="#464E8C" d="M394.576,783.975c9.443,2.075,8.895,7.606,13.056,11.541c0.676,0.639,0.98,1.579,0.78,2.487l-1.13,5.145  c-0.215,0.979-0.966,1.753-1.939,1.996l-0.117,0.029c-1.169,0.293-2.008,1.301-2.081,2.503  c-0.762,12.517-7.645,34.017-14.385,34.919c-5.976,0.799-5.514-17.692-5.514-17.692C393.399,823.643,396.221,809.18,394.576,783.975  z"/><path fill="#464E8C" d="M413.252,699.602c9.443,2.075,9.362,6.685,13.524,10.619c0.676,0.639,0.981,1.578,0.78,2.487l-1.131,5.144  c-0.215,0.98-0.966,1.753-1.938,1.996l-0.117,0.03c-1.169,0.294-2.008,1.301-2.082,2.503c-0.763,12.517-7.645,34.017-14.385,34.919  c-5.976,0.799-1.247-20.822-1.247-20.822C412.6,741.075,414.898,724.808,413.252,699.602z"/><path fill="#326AB3" d="M122.364,747.11c2.289-13.663,18.716-0.991,23.301,5.107c-2.271-6.836-4.141-13.777-5.643-20.817  c-37,4.647-25.542-30.945-0.438-2.119c-1.74-8.651-2.873-17.43-3.235-26.24c-36.652-1.391-20.212-34.285-0.085-2.571  c-0.234-9.485,0.386-19.355,3.788-28.252c-37.278-7.102-14.355-37.111,0.581-1.507c3.979-10.012,9.821-19.333,13.45-29.466  c-37.848-6.943-14.603-37.47,0.422-1.182c2.759-7.766,3.554-16.179,1.844-24.317c-38.71,3.585-24.53-32.735-0.214-1.026  c-1.927-8.778-6.21-17.163-11.829-23.913c-36.093-0.413-20.454-32.559,0.514-2.768c6.409,6.682,10.534,15.485,13.038,24.354  c7.05-37.376,34.575-12.865,0.613,2.475c2.078,8.428,1.186,17.397-1.635,25.477c23.303-30.891,37.467,3.981-0.71,2.027  c-3.83,10.482-9.893,20.017-13.779,30.41c22.301-32.924,40.132,2.213-0.258,0.697c-3.21,8.784-3.698,18.341-3.511,27.621  c18.06-33.476,37.358-1.915,0.075,2.262c0.355,8.607,1.521,17.198,3.234,25.64c9.553-37.6,36.912-11.215,0.329,1.584  c1.526,7.249,3.436,14.418,5.807,21.454c9.832-36.872,36.362-10.719,0.65,1.889c2.368,6.753,5.174,13.348,8.503,19.672  c-1.481,7.605-9.778-16.859-10.657-18.885C138.686,755.623,126.116,755.22,122.364,747.11z"/><path fill="#85AEE6" d="M126.3,816.098c5.968-11.784,17.316,4.419,19.755,11.274c-0.123-6.868,0.149-13.716,0.784-20.55  c-34.997-6.292-14.447-35.426,0.203-2.053c0.876-8.369,2.342-16.68,4.518-24.801c-32.963-11.689-8.647-36.951,0.653-2.364  c2.484-8.699,5.854-17.506,11.481-24.636c-31.909-17.064-2.511-37.856,0.957-1.205c6.469-7.981,14.436-14.803,20.62-22.994  c-32.472-17.082-2.635-38.254,0.72-0.956c4.72-6.283,7.836-13.714,8.592-21.607c-36.252-7.745-13.017-36.768,0.097-0.995  c0.743-8.537-0.771-17.387-3.966-25.128c-32.589-10.426-9.289-35.44,1.255-2.373c3.933,7.905,5.185,17.089,4.941,25.873  c17.045-32.012,35.126-1.878-0.145,2.427c-0.505,8.26-3.868,16.17-8.733,22.723c29.992-21.488,32.968,14.277-1.223,1.643  c-6.466,8.45-14.695,15.404-21.188,23.758c29.658-23.623,35.897,13.427-0.433,0.561c-5.419,7.081-8.582,15.641-11.05,24.141  c25.866-25.33,34.331,9.005-0.575,2.08c-2.125,7.935-3.505,16.085-4.347,24.256c19.387-31.505,36.782,0.29-0.151,1.535  c-0.672,7.032-0.973,14.1-0.815,21.178c19.434-30.763,36.142,0.585,0.055,1.904c0.235,6.82,0.914,13.62,2.144,20.323  c-3.51,6.495-4.104-18.119-4.328-20.219C138.736,828.487,127.409,824.546,126.3,816.098z"/><path fill="#FF9C61" d="M192.776,771.807c-0.376,4.837-6.754,86.059-7.345,93.594h-56.24c-0.686-7.918-7.668-88.419-8.109-93.594  H192.776z"/><path fill="#F5894A" d="M121.082,771.808c0.064,0.747,0.264,3.07,0.562,6.511h21.651c19.685,0,35.195,16.771,33.655,36.396  c-1.476,18.798-3.137,39.954-3.979,50.687h12.459c0.591-7.536,6.97-88.757,7.345-93.594H121.082z"/><path fill="#FF9C61" d="M191.372,771.811h-68.885c-4.622,0-8.37-3.039-8.37-6.789l0,0c0-3.749,3.747-6.788,8.37-6.788h68.885  c4.623,0,8.37,3.039,8.37,6.788l0,0C199.742,768.772,195.995,771.811,191.372,771.811z"/><path fill="#326AB3" d="M1180.992,747.11c2.289-13.663,18.716-0.991,23.301,5.107c-2.271-6.836-4.141-13.777-5.643-20.817  c-37,4.647-25.542-30.945-0.438-2.119c-1.74-8.651-2.873-17.43-3.235-26.24c-36.651-1.391-20.212-34.285-0.085-2.571  c-0.234-9.485,0.385-19.355,3.788-28.252c-37.278-7.102-14.354-37.111,0.581-1.507c3.979-10.012,9.821-19.333,13.45-29.466  c-37.848-6.943-14.603-37.47,0.422-1.182c2.759-7.766,3.554-16.179,1.844-24.317c-38.71,3.585-24.531-32.735-0.214-1.026  c-1.927-8.778-6.21-17.163-11.829-23.913c-36.093-0.413-20.454-32.559,0.514-2.768c6.409,6.682,10.534,15.485,13.038,24.354  c7.05-37.376,34.575-12.865,0.613,2.475c2.078,8.428,1.186,17.397-1.635,25.477c23.303-30.891,37.467,3.981-0.71,2.027  c-3.83,10.482-9.893,20.017-13.779,30.41c22.301-32.924,40.133,2.213-0.258,0.697c-3.21,8.784-3.698,18.341-3.511,27.621  c18.06-33.476,37.358-1.915,0.075,2.262c0.355,8.607,1.521,17.198,3.234,25.64c9.553-37.6,36.912-11.215,0.329,1.584  c1.526,7.249,3.436,14.418,5.807,21.454c9.833-36.872,36.362-10.719,0.65,1.889c2.368,6.753,5.174,13.348,8.503,19.672  c-1.481,7.605-9.778-16.859-10.657-18.885C1197.315,755.623,1184.745,755.22,1180.992,747.11z"/><path fill="#85AEE6" d="M1184.929,816.098c5.968-11.784,17.316,4.419,19.755,11.274c-0.123-6.868,0.149-13.716,0.784-20.55  c-34.997-6.292-14.447-35.426,0.203-2.053c0.876-8.369,2.341-16.68,4.518-24.801c-32.963-11.689-8.647-36.951,0.653-2.364  c2.484-8.699,5.854-17.506,11.481-24.636c-31.909-17.064-2.511-37.856,0.957-1.205c6.469-7.981,14.437-14.803,20.62-22.994  c-32.472-17.082-2.635-38.254,0.72-0.956c4.72-6.283,7.836-13.714,8.592-21.607c-36.252-7.745-13.016-36.768,0.097-0.995  c0.743-8.537-0.771-17.387-3.966-25.128c-32.589-10.426-9.289-35.44,1.255-2.373c3.933,7.905,5.186,17.089,4.941,25.873  c17.045-32.012,35.126-1.878-0.145,2.427c-0.505,8.26-3.868,16.17-8.733,22.723c29.992-21.488,32.968,14.277-1.223,1.643  c-6.466,8.45-14.695,15.404-21.188,23.758c29.658-23.623,35.897,13.427-0.433,0.561c-5.419,7.081-8.582,15.641-11.05,24.141  c25.866-25.33,34.33,9.005-0.575,2.08c-2.125,7.935-3.505,16.085-4.347,24.256c19.388-31.505,36.782,0.29-0.151,1.535  c-0.672,7.032-0.973,14.1-0.816,21.178c19.434-30.763,36.142,0.585,0.055,1.904c0.235,6.82,0.914,13.62,2.144,20.323  c-3.51,6.495-4.104-18.119-4.328-20.219C1197.364,828.487,1186.038,824.546,1184.929,816.098z"/><path fill="#FF9C61" d="M1251.404,771.807c-0.376,4.837-6.754,86.059-7.345,93.594h-56.24c-0.686-7.918-7.668-88.419-8.109-93.594  H1251.404z"/><path fill="#F5894A" d="M1179.71,771.808c0.064,0.747,0.264,3.07,0.562,6.511h21.651c19.685,0,35.195,16.771,33.655,36.396  c-1.476,18.798-3.137,39.954-3.979,50.687h12.459c0.591-7.536,6.97-88.757,7.345-93.594H1179.71z"/><path fill="#FF9C61" d="M1250.001,771.811h-68.885c-4.622,0-8.37-3.039-8.37-6.789l0,0c0-3.749,3.747-6.788,8.37-6.788h68.885  c4.623,0,8.37,3.039,8.37,6.788l0,0C1258.371,768.772,1254.624,771.811,1250.001,771.811z"/><path fill="#C2DCFF" d="M1140.542,487.339v25.569h-8.94c-4.213,0-7.63-3.417-7.63-7.63v-10.299c0-4.213,3.417-7.64,7.63-7.64  H1140.542z"/><path fill="#C2DCFF" d="M1172.906,512.335c-3.067,3.475-28.995,0.573-28.995,0.573v-25.569c0,0,4.756-4.611,6.028-8.853  c1.252-4.213,2.378-10.299,5.63-9.435c3.262,0.864,4.698,12.639,0.68,18.288c0,0,12.668-3.427,16.104,0.32  C1175.614,491.202,1175.779,509.083,1172.906,512.335z"/><path fill="#C2DCFF" d="M102.356,250.303v25.569h-8.94c-4.213,0-7.63-3.417-7.63-7.63v-10.299c0-4.213,3.417-7.64,7.63-7.64H102.356  z"/><path fill="#C2DCFF" d="M134.72,275.299c-3.067,3.475-28.995,0.573-28.995,0.573v-25.569c0,0,4.756-4.611,6.028-8.853  c1.252-4.213,2.378-10.299,5.63-9.435c3.262,0.864,4.698,12.639,0.68,18.288c0,0,12.668-3.427,16.104,0.32  C137.428,254.167,137.593,272.047,134.72,275.299z"/><path fill="#C2DCFF" d="M1222.309,387.053v16.734h-5.851c-2.757,0-4.993-2.236-4.993-4.993v-6.74c0-2.757,2.236-5,4.993-5H1222.309z  "/><path fill="#C2DCFF" d="M1243.49,403.412c-2.007,2.274-18.976,0.375-18.976,0.375v-16.734c0,0,3.113-3.018,3.945-5.794  c0.82-2.757,1.557-6.741,3.685-6.175c2.135,0.565,3.075,8.272,0.445,11.969c0,0,8.291-2.243,10.54,0.21  C1245.262,389.581,1245.37,401.284,1243.49,403.412z"/><path fill="#C2DCFF" d="M208.135,529.501v16.734h-5.851c-2.757,0-4.993-2.236-4.993-4.994v-6.74c0-2.757,2.236-5,4.993-5H208.135z"/><path fill="#C2DCFF" d="M229.316,545.86c-2.008,2.274-18.976,0.375-18.976,0.375v-16.734c0,0,3.113-3.018,3.945-5.794  c0.82-2.757,1.556-6.741,3.685-6.175c2.135,0.565,3.075,8.272,0.445,11.969c0,0,8.291-2.243,10.54,0.21  C231.088,532.03,231.196,543.732,229.316,545.86z"/></svg>